<?xml version="1.0" encoding="UTF-8"?>
<svg width="240" height="60" viewBox="0 0 240 60" xmlns="http://www.w3.org/2000/svg">
  <defs>
    <linearGradient id="nosyt-bg-gradient" x1="0%" y1="0%" x2="100%" y2="100%">
      <stop offset="0%" stop-color="#2D0A4F" />
      <stop offset="50%" stop-color="#4C1D95" />
      <stop offset="100%" stop-color="#3B0764" />
    </linearGradient>
    <linearGradient id="nosyt-arrow-gradient" x1="0%" y1="0%" x2="100%" y2="100%">
      <stop offset="0%" stop-color="#FF6B00" />
      <stop offset="100%" stop-color="#FF8C3F" />
    </linearGradient>
    <filter id="glow" x="-20%" y="-20%" width="140%" height="140%">
      <feGaussianBlur stdDeviation="1" result="blur" />
      <feComposite in="SourceGraphic" in2="blur" operator="over" />
    </filter>
  </defs>

  <!-- Logo Container -->
  <g transform="translate(5, 5)">
    <!-- Background with gradient and rounded corners -->
    <rect x="0" y="0" width="50" height="50" rx="10" fill="url(#nosyt-bg-gradient)" />

    <!-- Stylized N letter -->
    <g filter="url(#glow)">
      <!-- Main N shape -->
      <path d="M12.5 12.5 L12.5 37.5 L17.5 37.5 L17.5 22.5 L32.5 37.5 L37.5 37.5 L37.5 12.5 L32.5 12.5 L32.5 27.5 L17.5 12.5 Z" fill="#fff" />
    </g>

    <!-- Wavy arrow element -->
    <path d="M20 25 C22.5 20, 27.5 30, 30 25 L35 30 L30 35 L30 30 C27.5 35, 22.5 25, 20 30 Z" 
          fill="url(#nosyt-arrow-gradient)" 
          filter="url(#glow)" />
  </g>

  <!-- Text "NOSYT LABS" -->
  <g transform="translate(70, 35)" fill="#4C1D95">
    <!-- NOSYT -->
    <path d="M0 -15 L0 15 L5 15 L5 0 L15 15 L20 15 L20 -15 L15 -15 L15 0 L5 -15 Z" />
    <path d="M25 -15 L25 15 L45 15 L45 10 L30 10 L30 2 L42 2 L42 -3 L30 -3 L30 -10 L45 -10 L45 -15 Z" />
    <path d="M50 -15 L50 15 L55 15 L55 2 L60 2 C65 2 70 -2 70 -7 C70 -12 65 -15 60 -15 Z M55 -10 L60 -10 C62 -10 65 -9 65 -7 C65 -5 62 -3 60 -3 L55 -3 Z" />
    <path d="M75 -15 L75 15 L80 15 L80 2 L85 2 L90 15 L95 15 L90 2 C92 1 95 -1 95 -7 C95 -12 90 -15 85 -15 Z M80 -10 L85 -10 C87 -10 90 -9 90 -7 C90 -5 87 -3 85 -3 L80 -3 Z" />
    <path d="M100 -15 L100 15 L105 15 L105 -15 Z" />

    <!-- LABS -->
    <path d="M115 -15 L115 15 L120 15 L120 -10 L130 -10 L130 -15 Z" transform="translate(10, 0)" />
    <path d="M135 -15 L135 15 L155 15 L155 10 L140 10 L140 2 L152 2 L152 -3 L140 -3 L140 -10 L155 -10 L155 -15 Z" transform="translate(10, 0)" />
    <path d="M160 -15 L160 15 L165 15 L165 2 L170 2 C175 2 180 -2 180 -7 C180 -12 175 -15 170 -15 Z M165 -10 L170 -10 C172 -10 175 -9 175 -7 C175 -5 172 -3 170 -3 L165 -3 Z" transform="translate(10, 0)" />
    <path d="M185 -15 L185 15 L205 15 L205 10 L190 10 L190 2 L202 2 L202 -3 L190 -3 L190 -10 L205 -10 L205 -15 Z" transform="translate(10, 0)" />
  </g>
</svg>
