<?xml version="1.0" encoding="UTF-8"?>
<svg width="100" height="100" viewBox="0 0 100 100" xmlns="http://www.w3.org/2000/svg">
  <defs>
    <!-- Enhanced gradient with more vibrant colors -->
    <linearGradient id="nosyt-gradient" x1="0%" y1="0%" x2="100%" y2="100%">
      <stop offset="0%" stop-color="#3A0CA3" />
      <stop offset="50%" stop-color="#4C1D95" />
      <stop offset="100%" stop-color="#5B21B6" />
    </linearGradient>
    
    <!-- Improved glow effect -->
    <filter id="enhanced-glow" x="-30%" y="-30%" width="160%" height="160%">
      <feGaussianBlur stdDeviation="4" result="blur" />
      <feComposite in="SourceGraphic" in2="blur" operator="over" />
    </filter>
    
    <!-- Clip path for rounded corners -->
    <clipPath id="rounded-clip">
      <rect x="0" y="0" width="100" height="100" rx="15" />
    </clipPath>
    
    <!-- Orange accent gradient -->
    <linearGradient id="orange-accent" x1="0%" y1="0%" x2="100%" y2="100%">
      <stop offset="0%" stop-color="#FF6B00" />
      <stop offset="100%" stop-color="#FF9E00" />
    </linearGradient>
    
    <!-- Tech pattern gradient -->
    <linearGradient id="tech-pattern" x1="0%" y1="0%" x2="100%" y2="100%">
      <stop offset="0%" stop-color="#FFFFFF" stop-opacity="0.2" />
      <stop offset="100%" stop-color="#FFFFFF" stop-opacity="0.05" />
    </linearGradient>
  </defs>

  <!-- Background with enhanced gradient and rounded corners -->
  <rect x="0" y="0" width="100" height="100" rx="15" fill="url(#nosyt-gradient)" />
  
  <!-- Subtle outer glow -->
  <rect x="2" y="2" width="96" height="96" rx="13" fill="none" stroke="url(#orange-accent)" stroke-width="1" opacity="0.6" />

  <!-- Enhanced decorative tech pattern -->
  <g opacity="0.15" clip-path="url(#rounded-clip)">
    <!-- Circuit board pattern -->
    <path d="M0,20 L100,20" stroke="#fff" stroke-width="0.7" />
    <path d="M0,40 L100,40" stroke="#fff" stroke-width="0.7" />
    <path d="M0,60 L100,60" stroke="#fff" stroke-width="0.7" />
    <path d="M0,80 L100,80" stroke="#fff" stroke-width="0.7" />
    <path d="M20,0 L20,100" stroke="#fff" stroke-width="0.7" />
    <path d="M40,0 L40,100" stroke="#fff" stroke-width="0.7" />
    <path d="M60,0 L60,100" stroke="#fff" stroke-width="0.7" />
    <path d="M80,0 L80,100" stroke="#fff" stroke-width="0.7" />

    <!-- Connection nodes -->
    <circle cx="20" cy="20" r="3" fill="url(#tech-pattern)" />
    <circle cx="60" cy="20" r="3" fill="url(#tech-pattern)" />
    <circle cx="20" cy="60" r="3" fill="url(#tech-pattern)" />
    <circle cx="60" cy="60" r="3" fill="url(#tech-pattern)" />
    <circle cx="40" cy="40" r="3" fill="url(#tech-pattern)" />
    <circle cx="80" cy="40" r="3" fill="url(#tech-pattern)" />
    <circle cx="40" cy="80" r="3" fill="url(#tech-pattern)" />
    <circle cx="80" cy="80" r="3" fill="url(#tech-pattern)" />
    
    <!-- Additional tech elements -->
    <path d="M10,10 L30,10 L30,30 L10,30 Z" fill="none" stroke="#fff" stroke-width="0.5" opacity="0.5" />
    <path d="M70,70 L90,70 L90,90 L70,90 Z" fill="none" stroke="#fff" stroke-width="0.5" opacity="0.5" />
  </g>

  <!-- Stylized 3D N letter with enhanced effects -->
  <g filter="url(#enhanced-glow)">
    <!-- Main N shape with subtle gradient -->
    <path d="M25 20 L25 80 L35 80 L35 40 L65 80 L75 80 L75 20 L65 20 L65 60 L35 20 Z" fill="#fff" />

    <!-- 3D effect for N with improved orange accent -->
    <path d="M25 20 L25 80 L35 80 L35 40 L65 80 L75 80 L75 20 L65 20 L65 60 L35 20 Z"
          fill="none"
          stroke="url(#orange-accent)"
          stroke-width="2.5"
          stroke-linejoin="round" />
  </g>

  <!-- Enhanced accent elements -->
  <path d="M75 60 L85 60 L85 80 L75 80 Z" fill="url(#orange-accent)" />

  <!-- Tech dots with improved visibility -->
  <circle cx="15" cy="15" r="2.5" fill="url(#orange-accent)" />
  <circle cx="15" cy="85" r="2.5" fill="url(#orange-accent)" />
  <circle cx="85" cy="15" r="2.5" fill="url(#orange-accent)" />
  <circle cx="85" cy="85" r="2.5" fill="url(#orange-accent)" />

  <!-- Subtle glow effect with animation -->
  <circle cx="50" cy="50" r="35" fill="none" stroke="url(#orange-accent)" stroke-width="1.5" opacity="0.4">
    <animate attributeName="opacity" values="0.4;0.6;0.4" dur="3s" repeatCount="indefinite" />
  </circle>
  
  <!-- Additional tech accent -->
  <path d="M15 50 L25 50" stroke="url(#orange-accent)" stroke-width="1.5" opacity="0.7" />
  <path d="M75 50 L85 50" stroke="url(#orange-accent)" stroke-width="1.5" opacity="0.7" />
</svg>
