<svg xmlns="http://www.w3.org/2000/svg" viewBox="0 0 64 64" width="64" height="64">
  <defs>
    <linearGradient id="aiGradient" x1="0%" y1="0%" x2="100%" y2="100%">
      <stop offset="0%" style="stop-color:#3B82F6;stop-opacity:1" />
      <stop offset="50%" style="stop-color:#6366F1;stop-opacity:1" />
      <stop offset="100%" style="stop-color:#8B5CF6;stop-opacity:1" />
    </linearGradient>
  </defs>
  
  <!-- Main Brain Shape -->
  <path d="M32 8C24 8 18 14 18 22C18 24 18.5 25.8 19.3 27.4C17.4 29.2 16 31.8 16 34.5C16 38.6 19.4 42 23.5 42H40.5C44.6 42 48 38.6 48 34.5C48 31.8 46.6 29.2 44.7 27.4C45.5 25.8 46 24 46 22C46 14 40 8 32 8Z" 
        fill="url(#aiGradient)" 
        stroke="currentColor" 
        stroke-width="1.5" 
        stroke-linejoin="round"/>
  
  <!-- Neural Network Nodes -->
  <circle cx="26" cy="20" r="2" fill="currentColor" opacity="0.8"/>
  <circle cx="32" cy="18" r="2" fill="currentColor" opacity="0.8"/>
  <circle cx="38" cy="20" r="2" fill="currentColor" opacity="0.8"/>
  <circle cx="24" cy="28" r="1.5" fill="currentColor" opacity="0.6"/>
  <circle cx="32" cy="26" r="1.5" fill="currentColor" opacity="0.6"/>
  <circle cx="40" cy="28" r="1.5" fill="currentColor" opacity="0.6"/>
  <circle cx="28" cy="34" r="1.5" fill="currentColor" opacity="0.6"/>
  <circle cx="36" cy="34" r="1.5" fill="currentColor" opacity="0.6"/>
  
  <!-- Neural Connections -->
  <path d="M26 20 L32 18 L38 20" stroke="currentColor" stroke-width="1" opacity="0.4" fill="none"/>
  <path d="M26 20 L24 28" stroke="currentColor" stroke-width="1" opacity="0.4" fill="none"/>
  <path d="M32 18 L32 26" stroke="currentColor" stroke-width="1" opacity="0.4" fill="none"/>
  <path d="M38 20 L40 28" stroke="currentColor" stroke-width="1" opacity="0.4" fill="none"/>
  <path d="M24 28 L28 34" stroke="currentColor" stroke-width="1" opacity="0.4" fill="none"/>
  <path d="M32 26 L28 34" stroke="currentColor" stroke-width="1" opacity="0.4" fill="none"/>
  <path d="M32 26 L36 34" stroke="currentColor" stroke-width="1" opacity="0.4" fill="none"/>
  <path d="M40 28 L36 34" stroke="currentColor" stroke-width="1" opacity="0.4" fill="none"/>
  
  <!-- Circuit Elements -->
  <rect x="20" y="48" width="24" height="8" rx="4" fill="url(#aiGradient)" stroke="currentColor" stroke-width="1.5"/>
  <circle cx="24" cy="52" r="1" fill="currentColor"/>
  <circle cx="28" cy="52" r="1" fill="currentColor"/>
  <circle cx="32" cy="52" r="1" fill="currentColor"/>
  <circle cx="36" cy="52" r="1" fill="currentColor"/>
  <circle cx="40" cy="52" r="1" fill="currentColor"/>
  
  <!-- Connection Lines -->
  <path d="M28 42 L28 48" stroke="currentColor" stroke-width="2" opacity="0.6"/>
  <path d="M36 42 L36 48" stroke="currentColor" stroke-width="2" opacity="0.6"/>
</svg>