<svg xmlns="http://www.w3.org/2000/svg" viewBox="0 0 64 64" width="64" height="64">
  <defs>
    <linearGradient id="brainGradient" x1="0%" y1="0%" x2="100%" y2="100%">
      <stop offset="0%" style="stop-color:#3B82F6;stop-opacity:1" />
      <stop offset="50%" style="stop-color:#6366F1;stop-opacity:1" />
      <stop offset="100%" style="stop-color:#8B5CF6;stop-opacity:1" />
    </linearGradient>
  </defs>
  
  <!-- Left Brain Hemisphere -->
  <path d="M16 20C16 14 20 10 26 10C30 10 32 12 32 16V48C32 52 30 54 26 54C20 54 16 50 16 44V20Z" 
        fill="url(#brainGradient)" stroke="#1E40AF" stroke-width="1"/>
  
  <!-- Right Brain Hemisphere -->
  <path d="M48 20C48 14 44 10 38 10C34 10 32 12 32 16V48C32 52 34 54 38 54C44 54 48 50 48 44V20Z" 
        fill="url(#brainGradient)" stroke="#1E40AF" stroke-width="1"/>
  
  <!-- Brain Stem -->
  <rect x="30" y="48" width="4" height="8" fill="url(#brainGradient)" stroke="#1E40AF" stroke-width="1"/>
  
  <!-- Neural Connections -->
  <circle cx="22" cy="25" r="2" fill="#FFFFFF" opacity="0.8"/>
  <circle cx="26" cy="30" r="1.5" fill="#FFFFFF" opacity="0.6"/>
  <circle cx="20" cy="35" r="1" fill="#FFFFFF" opacity="0.4"/>
  
  <circle cx="42" cy="25" r="2" fill="#FFFFFF" opacity="0.8"/>
  <circle cx="38" cy="30" r="1.5" fill="#FFFFFF" opacity="0.6"/>
  <circle cx="44" cy="35" r="1" fill="#FFFFFF" opacity="0.4"/>
  
  <!-- Connection Lines -->
  <line x1="22" y1="25" x2="26" y2="30" stroke="#FFFFFF" stroke-width="0.5" opacity="0.5"/>
  <line x1="26" y1="30" x2="20" y2="35" stroke="#FFFFFF" stroke-width="0.5" opacity="0.5"/>
  
  <line x1="42" y1="25" x2="38" y2="30" stroke="#FFFFFF" stroke-width="0.5" opacity="0.5"/>
  <line x1="38" y1="30" x2="44" y2="35" stroke="#FFFFFF" stroke-width="0.5" opacity="0.5"/>
</svg>