<svg xmlns="http://www.w3.org/2000/svg" width="32" height="32" viewBox="0 0 32 32" fill="none">
  <defs>
    <linearGradient id="consultingGradient" x1="0%" y1="0%" x2="100%" y2="100%">
      <stop offset="0%" style="stop-color:#00F0FF;stop-opacity:1" />
      <stop offset="50%" style="stop-color:#0080FF;stop-opacity:1" />
      <stop offset="100%" style="stop-color:#8B5CF6;stop-opacity:1" />
    </linearGradient>
  </defs>
  
  <!-- Main consultant figure -->
  <circle cx="12" cy="9" r="4.5" fill="url(#consultingGradient)" opacity="0.9"/>
  <path d="M21 28v-2.5a5 5 0 0 0-5-5H8a5 5 0 0 0-5 5V28" stroke="url(#consultingGradient)" stroke-width="2.5" fill="none" opacity="0.8"/>
  
  <!-- Secondary figure (team/client) -->
  <circle cx="21" cy="8" r="3.2" fill="url(#consultingGradient)" opacity="0.7"/>
  <path d="M29 28v-2.5a5 5 0 0 0-3.8-4.8" stroke="url(#consultingGradient)" stroke-width="2.5" fill="none" opacity="0.6"/>
  
  <!-- Communication/connection elements -->
  <path d="M14.5 13c1.3 0 2.5 1.2 3.8 2.5" stroke="url(#consultingGradient)" stroke-width="2" fill="none" opacity="0.7"/>
  
  <!-- Expertise indicators (static for cleaner look) -->
  <circle cx="25" cy="5" r="1.2" fill="#00F0FF" opacity="0.8"/>
  <circle cx="28" cy="8" r="1" fill="#8B5CF6" opacity="0.7"/>
  <circle cx="26.5" cy="10.5" r="0.8" fill="#0080FF" opacity="0.6"/>
  
  <!-- Professional briefcase/tools indicator -->
  <rect x="2.5" y="24" width="5" height="4" rx="0.8" fill="url(#consultingGradient)" opacity="0.6"/>
  <rect x="3" y="23.2" width="4" height="0.8" rx="0.4" fill="url(#consultingGradient)" opacity="0.8"/>
  
  <!-- Strategy/planning elements -->
  <rect x="26" y="22" width="4" height="3" rx="0.5" fill="url(#consultingGradient)" opacity="0.5"/>
  <path d="M27 23.5 L28.5 23.5 M27 24.5 L29 24.5" stroke="#ffffff" stroke-width="0.5" opacity="0.7"/>
  
  <!-- Connection lines between figures -->
  <path d="M15 11 Q18 9 21 11" stroke="url(#consultingGradient)" stroke-width="1.2" opacity="0.4" fill="none" stroke-dasharray="2,2"/>
  
  <!-- Knowledge/insight indicators -->
  <circle cx="4" cy="12" r="0.8" fill="#00F0FF" opacity="0.6"/>
  <circle cx="6" cy="15" r="0.6" fill="#0080FF" opacity="0.5"/>
  <circle cx="3" cy="18" r="0.7" fill="#8B5CF6" opacity="0.6"/>
</svg>