<svg xmlns="http://www.w3.org/2000/svg" width="32" height="32" viewBox="0 0 32 32" fill="none">
  <defs>
    <linearGradient id="rocketGradient" x1="0%" y1="0%" x2="100%" y2="100%">
      <stop offset="0%" style="stop-color:hsl(220, 85%, 55%);stop-opacity:1" />
      <stop offset="50%" style="stop-color:hsl(185, 75%, 50%);stop-opacity:1" />
      <stop offset="100%" style="stop-color:hsl(160, 75%, 45%);stop-opacity:1" />
    </linearGradient>
    <linearGradient id="flameGradient" x1="0%" y1="0%" x2="0%" y2="100%">
      <stop offset="0%" style="stop-color:hsl(0, 84%, 60%);stop-opacity:1" />
      <stop offset="50%" style="stop-color:hsl(280, 75%, 60%);stop-opacity:1" />
      <stop offset="100%" style="stop-color:hsl(160, 75%, 45%);stop-opacity:1" />
    </linearGradient>
  </defs>
  
  <!-- Main rocket body -->
  <path d="M16 2c-2 0-4 2-4 4v12c0 2 2 4 4 4s4-2 4-4V6c0-2-2-4-4-4z" fill="url(#rocketGradient)" opacity="0.9"/>
  
  <!-- Rocket nose cone -->
  <path d="M16 2c-1.5 0-3 1-3 2.5s1.5 2.5 3 2.5 3-1 3-2.5S17.5 2 16 2z" fill="url(#rocketGradient)" opacity="1"/>
  
  <!-- Rocket fins -->
  <path d="M12 16l-3 4 3 2v-6z" fill="url(#rocketGradient)" opacity="0.8"/>
  <path d="M20 16l3 4-3 2v-6z" fill="url(#rocketGradient)" opacity="0.8"/>
  
  <!-- Rocket window/porthole -->
  <circle cx="16" cy="10" r="2.5" fill="#87CEEB" opacity="0.8"/>
  <circle cx="16" cy="10" r="1.8" fill="#B0E0E6" opacity="0.6"/>
  <circle cx="17" cy="9" r="0.8" fill="#ffffff" opacity="0.9"/>
  
  <!-- Engine/thruster -->
  <rect x="14" y="20" width="4" height="3" rx="0.5" fill="#666666" opacity="0.8"/>
  
  <!-- Exhaust flames -->
  <path d="M15 23c0 2-0.5 4-1 6 0.5 1 1.5 1 2 0 0.5-1 1.5-1 2 0-0.5-2-1-4-1-6" fill="url(#flameGradient)" opacity="0.9"/>
  <path d="M14.5 24c-0.3 1.5-0.8 3-1.2 4.5 0.4 0.8 1.2 0.8 1.6 0 0.4-0.8 1.2-0.8 1.6 0-0.4-1.5-0.9-3-1.2-4.5" fill="url(#flameGradient)" opacity="0.7"/>
  <path d="M17.5 24c0.3 1.5 0.8 3 1.2 4.5-0.4 0.8-1.2 0.8-1.6 0-0.4-0.8-1.2-0.8-1.6 0 0.4-1.5 0.9-3 1.2-4.5" fill="url(#flameGradient)" opacity="0.7"/>
  
  <!-- Speed/motion lines -->
  <path d="M8 8l-2 0.5M8 10l-3 0.5M8 12l-2 0.5" stroke="#00F0FF" stroke-width="1.5" opacity="0.6"/>
  <path d="M24 8l2 0.5M24 10l3 0.5M24 12l2 0.5" stroke="#00F0FF" stroke-width="1.5" opacity="0.6"/>
  
  <!-- Stars/space elements -->
  <circle cx="6" cy="5" r="0.8" fill="hsl(185, 75%, 50%)" opacity="0.8"/>
  <circle cx="26" cy="6" r="0.6" fill="hsl(185, 75%, 50%)" opacity="0.7"/>
  <circle cx="4" cy="15" r="0.5" fill="hsl(185, 75%, 50%)" opacity="0.6"/>
  <circle cx="28" cy="14" r="0.7" fill="hsl(185, 75%, 50%)" opacity="0.8"/>
  
  <!-- Rocket details/panels -->
  <rect x="13.5" y="12" width="5" height="0.5" rx="0.25" fill="#ffffff" opacity="0.4"/>
  <rect x="13.5" y="14" width="5" height="0.5" rx="0.25" fill="#ffffff" opacity="0.4"/>
  <rect x="13.5" y="16" width="5" height="0.5" rx="0.25" fill="#ffffff" opacity="0.4"/>
</svg>