<svg xmlns="http://www.w3.org/2000/svg" width="32" height="32" viewBox="0 0 32 32" fill="none">
  <defs>
    <linearGradient id="sprintGradient" x1="0%" y1="0%" x2="100%" y2="100%">
      <stop offset="0%" style="stop-color:#3b82f6;stop-opacity:1" />
      <stop offset="50%" style="stop-color:#6366f1;stop-opacity:1" />
      <stop offset="100%" style="stop-color:#8b5cf6;stop-opacity:1" />
    </linearGradient>
  </defs>
  
  <!-- Rocket body -->
  <path d="M16 4 L20 12 L16 28 L12 12 Z" fill="url(#sprintGradient)" opacity="0.9"/>
  
  <!-- Rocket fins -->
  <path d="M12 12 L8 16 L12 20 Z" fill="#3b82f6" opacity="0.8"/>
  <path d="M20 12 L24 16 L20 20 Z" fill="#6366f1" opacity="0.8"/>
  
  <!-- Rocket nose -->
  <circle cx="16" cy="8" r="2" fill="#8b5cf6" opacity="0.9"/>
  
  <!-- Rocket window -->
  <circle cx="16" cy="12" r="1.5" fill="#ffffff" opacity="0.8"/>
  <circle cx="16" cy="12" r="1" fill="#3b82f6" opacity="0.6"/>
  
  <!-- Exhaust flames -->
  <path d="M14 28 L12 32 L16 30 L20 32 L18 28" fill="hsl(185, 75%, 50%)" opacity="0.8"/>
  <path d="M15 28 L14 30 L16 29 L18 30 L17 28" fill="#ef4444" opacity="0.7"/>
  
  <!-- Speed lines -->
  <path d="M4 10 L8 10" stroke="#3b82f6" stroke-width="2" opacity="0.6" stroke-linecap="round"/>
  <path d="M2 14 L6 14" stroke="#6366f1" stroke-width="2" opacity="0.6" stroke-linecap="round"/>
  <path d="M4 18 L8 18" stroke="#8b5cf6" stroke-width="2" opacity="0.6" stroke-linecap="round"/>
</svg>