<svg xmlns="http://www.w3.org/2000/svg" viewBox="0 0 64 64" width="64" height="64">
  <defs>
    <linearGradient id="webGradient" x1="0%" y1="0%" x2="100%" y2="100%">
      <stop offset="0%" style="stop-color:#00F0FF;stop-opacity:1" />
      <stop offset="25%" style="stop-color:#0099FF;stop-opacity:1" />
      <stop offset="50%" style="stop-color:#0080FF;stop-opacity:1" />
      <stop offset="75%" style="stop-color:#6366F1;stop-opacity:1" />
      <stop offset="100%" style="stop-color:#8B5CF6;stop-opacity:1" />
    </linearGradient>
    <linearGradient id="codeGradient" x1="0%" y1="0%" x2="100%" y2="100%">
      <stop offset="0%" style="stop-color:#10B981;stop-opacity:1" />
      <stop offset="50%" style="stop-color:#3B82F6;stop-opacity:1" />
      <stop offset="100%" style="stop-color:#8B5CF6;stop-opacity:1" />
    </linearGradient>
    <linearGradient id="screenGradient" x1="0%" y1="0%" x2="100%" y2="100%">
      <stop offset="0%" style="stop-color:#1F2937;stop-opacity:1" />
      <stop offset="50%" style="stop-color:#374151;stop-opacity:1" />
      <stop offset="100%" style="stop-color:#4B5563;stop-opacity:1" />
    </linearGradient>
  </defs>
  
  <!-- Enhanced Monitor/Screen -->
  <g>
    <!-- Monitor bezel -->
    <rect x="10" y="16" width="44" height="28" rx="3" fill="url(#screenGradient)" stroke="url(#webGradient)" stroke-width="1.5"/>
    
    <!-- Screen -->
    <rect x="12" y="18" width="40" height="24" rx="2" fill="#0A0A0A"/>
    
    <!-- Monitor stand -->
    <rect x="28" y="44" width="8" height="6" rx="1" fill="url(#screenGradient)"/>
    <rect x="22" y="50" width="20" height="3" rx="1.5" fill="url(#screenGradient)"/>
  </g>
  
  <!-- Enhanced Browser Window -->
  <g>
    <!-- Browser chrome -->
    <rect x="14" y="20" width="36" height="3" rx="1.5" fill="url(#webGradient)" opacity="0.8"/>
    
    <!-- Browser dots -->
    <circle cx="16.5" cy="21.5" r="0.8" fill="hsl(0, 84%, 60%)"/>
    <circle cx="19" cy="21.5" r="0.8" fill="hsl(280, 75%, 60%)"/>
    <circle cx="21.5" cy="21.5" r="0.8" fill="hsl(142, 76%, 40%)"/>
    
    <!-- Address bar -->
    <rect x="25" y="20.5" width="22" height="2" rx="1" fill="#374151" opacity="0.8"/>
    
    <!-- Website content -->
    <rect x="16" y="25" width="32" height="2" rx="1" fill="url(#codeGradient)" opacity="0.7"/>
    <rect x="16" y="28" width="24" height="1.5" rx="0.75" fill="url(#codeGradient)" opacity="0.5"/>
    <rect x="16" y="31" width="28" height="1.5" rx="0.75" fill="url(#codeGradient)" opacity="0.5"/>
    
    <!-- Code elements -->
    <rect x="16" y="34" width="4" height="4" rx="0.5" fill="url(#webGradient)" opacity="0.6"/>
    <rect x="22" y="34" width="4" height="4" rx="0.5" fill="url(#codeGradient)" opacity="0.6"/>
    <rect x="28" y="34" width="4" height="4" rx="0.5" fill="url(#webGradient)" opacity="0.6"/>
  </g>
  
  <!-- Code brackets overlay -->
  <g opacity="0.8">
    <path d="M8 30 L4 32 L8 34" stroke="url(#codeGradient)" stroke-width="2" stroke-linecap="round" stroke-linejoin="round" fill="none"/>
    <path d="M56 30 L60 32 L56 34" stroke="url(#codeGradient)" stroke-width="2" stroke-linecap="round" stroke-linejoin="round" fill="none"/>
  </g>
  
  <!-- Development tools indicators -->
  <circle cx="8" cy="20" r="1.5" fill="#00F0FF" opacity="0.8"/>
  <circle cx="8" cy="24" r="1.2" fill="#0080FF" opacity="0.7"/>
  <circle cx="8" cy="28" r="1" fill="#8B5CF6" opacity="0.6"/>
  
  <circle cx="56" cy="20" r="1.5" fill="#10B981" opacity="0.8"/>
  <circle cx="56" cy="24" r="1.2" fill="#3B82F6" opacity="0.7"/>
  <circle cx="56" cy="28" r="1" fill="#8B5CF6" opacity="0.6"/>
  
  <!-- Network/connection lines -->
  <path d="M32 8 Q40 12 48 8" stroke="url(#webGradient)" stroke-width="1.5" opacity="0.4" fill="none"/>
  <path d="M16 8 Q24 12 32 8" stroke="url(#webGradient)" stroke-width="1.5" opacity="0.4" fill="none"/>
  
  <!-- Data flow indicators -->
  <circle cx="20" cy="8" r="1" fill="#00F0FF" opacity="0.6"/>
  <circle cx="32" cy="6" r="1.2" fill="#0080FF" opacity="0.8"/>
  <circle cx="44" cy="8" r="1" fill="#8B5CF6" opacity="0.6"/>
</svg>