<svg xmlns="http://www.w3.org/2000/svg" viewBox="0 0 32 32" width="32" height="32">
  <defs>
    <linearGradient id="faviconGradient" x1="0%" y1="0%" x2="100%" y2="100%">
      <stop offset="0%" style="stop-color:#00F0FF;stop-opacity:1" />
      <stop offset="25%" style="stop-color:#0099FF;stop-opacity:1" />
      <stop offset="50%" style="stop-color:#0080FF;stop-opacity:1" />
      <stop offset="75%" style="stop-color:#6366F1;stop-opacity:1" />
      <stop offset="100%" style="stop-color:#8B5CF6;stop-opacity:1" />
    </linearGradient>
    <linearGradient id="bgGradient" x1="0%" y1="0%" x2="100%" y2="100%">
      <stop offset="0%" style="stop-color:#0A0A0A;stop-opacity:1" />
      <stop offset="50%" style="stop-color:#151515;stop-opacity:1" />
      <stop offset="100%" style="stop-color:#1A1A1A;stop-opacity:1" />
    </linearGradient>
    <filter id="faviconGlow" x="-50%" y="-50%" width="200%" height="200%">
      <feGaussianBlur stdDeviation="0.8" result="coloredBlur"/>
      <feMerge> 
        <feMergeNode in="coloredBlur"/>
        <feMergeNode in="SourceGraphic"/>
      </feMerge>
    </filter>
  </defs>
  
  <!-- Enhanced Background -->
  <rect width="32" height="32" rx="8" fill="url(#bgGradient)"/>
  
  <!-- Outer rings with enhanced styling -->
  <circle cx="16" cy="16" r="13" fill="none" stroke="url(#faviconGradient)" stroke-width="1" opacity="0.4"/>
  <circle cx="16" cy="16" r="10" fill="none" stroke="url(#faviconGradient)" stroke-width="0.8" opacity="0.6"/>
  
  <!-- Inner geometric pattern -->
  <g fill="url(#faviconGradient)" filter="url(#faviconGlow)">
    <!-- Central hexagon with enhanced proportions -->
    <polygon points="16,9 20,11.5 20,20.5 16,23 12,20.5 12,11.5" opacity="0.95"/>
    
    <!-- Enhanced connecting nodes -->
    <circle cx="16" cy="6" r="1.8"/>
    <circle cx="23" cy="11" r="1.8"/>
    <circle cx="23" cy="21" r="1.8"/>
    <circle cx="16" cy="26" r="1.8"/>
    <circle cx="9" cy="21" r="1.8"/>
    <circle cx="9" cy="11" r="1.8"/>
    
    <!-- Enhanced connection lines -->
    <line x1="16" y1="9" x2="16" y2="6" stroke="url(#faviconGradient)" stroke-width="1.5" opacity="0.8"/>
    <line x1="20" y1="11.5" x2="23" y2="11" stroke="url(#faviconGradient)" stroke-width="1.5" opacity="0.8"/>
    <line x1="20" y1="20.5" x2="23" y2="21" stroke="url(#faviconGradient)" stroke-width="1.5" opacity="0.8"/>
    <line x1="16" y1="23" x2="16" y2="26" stroke="url(#faviconGradient)" stroke-width="1.5" opacity="0.8"/>
    <line x1="12" y1="20.5" x2="9" y2="21" stroke="url(#faviconGradient)" stroke-width="1.5" opacity="0.8"/>
    <line x1="12" y1="11.5" x2="9" y2="11" stroke="url(#faviconGradient)" stroke-width="1.5" opacity="0.8"/>
    
    <!-- Inner connection web -->
    <line x1="16" y1="9" x2="20" y2="11.5" stroke="url(#faviconGradient)" stroke-width="0.6" opacity="0.4"/>
    <line x1="20" y1="11.5" x2="20" y2="20.5" stroke="url(#faviconGradient)" stroke-width="0.6" opacity="0.4"/>
    <line x1="20" y1="20.5" x2="16" y2="23" stroke="url(#faviconGradient)" stroke-width="0.6" opacity="0.4"/>
    <line x1="16" y1="23" x2="12" y2="20.5" stroke="url(#faviconGradient)" stroke-width="0.6" opacity="0.4"/>
    <line x1="12" y1="20.5" x2="12" y2="11.5" stroke="url(#faviconGradient)" stroke-width="0.6" opacity="0.4"/>
    <line x1="12" y1="11.5" x2="16" y2="9" stroke="url(#faviconGradient)" stroke-width="0.6" opacity="0.4"/>
  </g>
</svg>