<svg xmlns="http://www.w3.org/2000/svg" viewBox="0 0 48 48"><defs><linearGradient id="g" x1="0" x2="1" y1="0" y2="1"><stop offset="0%" stop-color="#667eea"/><stop offset="100%" stop-color="#764ba2"/></linearGradient></defs><rect width="48" height="48" rx="10" fill="url(#g)"/><path fill="#fff" d="M24 10c-7.18 0-13 5.82-13 13s5.82 13 13 13 13-5.82 13-13S31.18 10 24 10zm0 4c1.66 0 3 1.34 3 3s-1.34 3-3 3-3-1.34-3-3 1.34-3 3-3zm0 18c-3.31 0-6.22-1.61-8.02-4.09.04-1.98 4.01-3.07 8.02-3.07s7.98 1.09 8.02 3.07C30.22 30.39 27.31 32 24 32z"/></svg>