<!-- Official NosytLabs Logo with Text - Exact recreation from provided image -->
<svg xmlns="http://www.w3.org/2000/svg" viewBox="0 0 300 200" width="300" height="200">
  <!-- Dark Purple Background -->
  <rect width="300" height="200" fill="#2D1B69"/>

  <!-- Main Purple Wave (N Shape) - Flowing curves -->
  <path d="M50 80 C60 70, 70 90, 80 80 C90 70, 100 100, 110 90 C120 80, 130 110, 140 100 C150 90, 160 120, 170 110 C180 100, 190 130, 200 120 C210 110, 220 140, 230 130 L230 150 C220 160, 210 140, 200 150 C190 160, 180 130, 170 140 C160 150, 150 120, 140 130 C130 140, 120 110, 110 120 C100 130, 90 100, 80 110 C70 120, 60 90, 50 100 Z" fill="#7c3aed"/>

  <!-- Orange Wave Overlay - Flowing over purple -->
  <path d="M60 85 C70 75, 80 95, 90 85 C100 75, 110 105, 120 95 C130 85, 140 115, 150 105 C160 95, 170 125, 180 115 C190 105, 200 135, 210 125 C220 115, 230 145, 230 145 L230 140 C220 150, 210 130, 200 140 C190 150, 180 120, 170 130 C160 140, 150 110, 140 120 C130 130, 120 100, 110 110 C100 120, 90 90, 80 100 C70 110, 60 85, 60 90 Z" fill="#ff6b35"/>

  <!-- Orange Gradient Highlight for depth -->
  <path d="M70 90 C80 80, 90 100, 100 90 C110 80, 120 110, 130 100 C140 90, 150 120, 160 110 C170 100, 180 130, 190 120 C200 110, 210 140, 220 130 L220 135 C210 145, 200 125, 190 135 C180 145, 170 115, 160 125 C150 135, 140 105, 130 115 C120 125, 110 95, 100 105 C90 115, 80 90, 70 95 Z" fill="#ff8c42" opacity="0.6"/>

  <!-- Upward Arrow -->
  <path d="M210 50 L230 70 L220 70 L220 85 L200 85 L200 70 L190 70 Z" fill="#ff6b35"/>

  <!-- NOSYT LABS Text -->
  <text x="75" y="175" font-family="Arial, sans-serif" font-size="20" font-weight="bold" fill="white" letter-spacing="1.5px">NOSYT</text>
  <text x="155" y="175" font-family="Arial, sans-serif" font-size="20" font-weight="300" fill="rgba(255,255,255,0.7)" letter-spacing="2px">LABS</text>
</svg>