<svg width="120" height="120" viewBox="0 0 120 120" xmlns="http://www.w3.org/2000/svg">
  <defs>
    <linearGradient id="avatar3" x1="0%" y1="0%" x2="100%" y2="100%">
      <stop offset="0%" style="stop-color:#a8edea;stop-opacity:1" />
      <stop offset="100%" style="stop-color:#fed6e3;stop-opacity:1" />
    </linearGradient>
  </defs>
  
  <!-- Background Circle -->
  <circle cx="60" cy="60" r="60" fill="url(#avatar3)"/>
  
  <!-- Face -->
  <circle cx="60" cy="50" r="20" fill="#f1f5f9" opacity="0.9"/>
  
  <!-- Hair -->
  <path d="M38 30 Q60 20 82 30 Q88 50 75 55 Q60 45 45 55 Q32 50 38 30" fill="#7c2d12"/>
  
  <!-- Eyes -->
  <circle cx="52" cy="47" r="2" fill="#1f2937"/>
  <circle cx="68" cy="47" r="2" fill="#1f2937"/>
  
  <!-- Eyelashes -->
  <path d="M50 44 L49 42" stroke="#1f2937" stroke-width="0.5"/>
  <path d="M54 44 L55 42" stroke="#1f2937" stroke-width="0.5"/>
  <path d="M66 44 L65 42" stroke="#1f2937" stroke-width="0.5"/>
  <path d="M70 44 L71 42" stroke="#1f2937" stroke-width="0.5"/>
  
  <!-- Nose -->
  <circle cx="60" cy="52" r="1" fill="hsl(185, 75%, 50%)" opacity="0.6"/>
  
  <!-- Mouth -->
  <path d="M55 57 Q60 62 65 57" stroke="#dc2626" stroke-width="1.5" fill="none"/>
  
  <!-- Body/Shoulders -->
  <path d="M30 100 Q60 85 90 100 L90 120 L30 120 Z" fill="#ec4899"/>
  
  <!-- Professional Badge -->
  <rect x="70" y="15" width="40" height="12" rx="6" fill="#ec4899"/>
  <text x="90" y="23" font-family="Arial, sans-serif" font-size="7" fill="white" text-anchor="middle">Marketing</text>
</svg>