<svg width="120" height="120" viewBox="0 0 120 120" xmlns="http://www.w3.org/2000/svg">
  <defs>
    <linearGradient id="avatar6" x1="0%" y1="0%" x2="100%" y2="100%">
      <stop offset="0%" style="stop-color:#ffecd2;stop-opacity:1" />
      <stop offset="100%" style="stop-color:#fcb69f;stop-opacity:1" />
    </linearGradient>
  </defs>
  
  <!-- Background Circle -->
  <circle cx="60" cy="60" r="60" fill="url(#avatar6)"/>
  
  <!-- Face -->
  <circle cx="60" cy="50" r="20" fill="#fef7cd" opacity="0.9"/>
  
  <!-- Hair -->
  <path d="M42 30 Q60 22 78 30 Q83 40 78 48 Q60 38 42 48 Q37 40 42 30" fill="#6b7280"/>
  
  <!-- Eyes -->
  <circle cx="52" cy="47" r="2" fill="#1f2937"/>
  <circle cx="68" cy="47" r="2" fill="#1f2937"/>
  
  <!-- Nose -->
  <circle cx="60" cy="52" r="1" fill="#f59e0b" opacity="0.6"/>
  
  <!-- Mouth -->
  <path d="M55 57 Q60 62 65 57" stroke="#1f2937" stroke-width="1.5" fill="none"/>
  
  <!-- Mustache -->
  <path d="M52 55 Q60 58 68 55" stroke="#6b7280" stroke-width="2" fill="none"/>
  
  <!-- Body/Shoulders -->
  <path d="M30 100 Q60 85 90 100 L90 120 L30 120 Z" fill="#f97316"/>
  
  <!-- Professional Badge -->
  <rect x="70" y="15" width="40" height="12" rx="6" fill="#f97316"/>
  <text x="90" y="23" font-family="Arial, sans-serif" font-size="7" fill="white" text-anchor="middle">Operations</text>
</svg>