<svg width="120" height="120" viewBox="0 0 120 120" xmlns="http://www.w3.org/2000/svg">
  <defs>
    <linearGradient id="avatar1" x1="0%" y1="0%" x2="100%" y2="100%">
      <stop offset="0%" style="stop-color:#667eea;stop-opacity:1" />
      <stop offset="100%" style="stop-color:#764ba2;stop-opacity:1" />
    </linearGradient>
  </defs>
  
  <!-- Background Circle -->
  <circle cx="60" cy="60" r="60" fill="url(#avatar1)"/>
  
  <!-- Face -->
  <circle cx="60" cy="50" r="20" fill="#fbbf24" opacity="0.9"/>
  
  <!-- Hair -->
  <path d="M40 35 Q60 25 80 35 Q85 45 80 50 Q60 40 40 50 Q35 45 40 35" fill="#92400e"/>
  
  <!-- Eyes -->
  <circle cx="52" cy="47" r="2" fill="#1f2937"/>
  <circle cx="68" cy="47" r="2" fill="#1f2937"/>
  
  <!-- Nose -->
  <circle cx="60" cy="52" r="1" fill="#f59e0b" opacity="0.6"/>
  
  <!-- Mouth -->
  <path d="M55 57 Q60 62 65 57" stroke="#1f2937" stroke-width="1.5" fill="none"/>
  
  <!-- Body/Shoulders -->
  <path d="M30 100 Q60 85 90 100 L90 120 L30 120 Z" fill="#3b82f6"/>
  
  <!-- Professional Badge -->
  <rect x="75" y="15" width="30" height="12" rx="6" fill="#10b981"/>
  <text x="90" y="23" font-family="Arial, sans-serif" font-size="8" fill="white" text-anchor="middle">CEO</text>
</svg>