<?xml version="1.0" encoding="UTF-8" standalone="no"?>
<svg xmlns="http://www.w3.org/2000/svg" width="48" height="48" viewBox="0 0 48 48">
  <circle cx="24" cy="24" r="22" fill="#0078D7" stroke="#005A9E" stroke-width="2"/>
  <circle cx="24" cy="24" r="18" fill="#FFFFFF" opacity="0.2"/>
  <path d="M24 6C14.06 6 6 14.06 6 24C6 33.94 14.06 42 24 42C33.94 42 42 33.94 42 24C42 14.06 33.94 6 24 6ZM39.12 20H32.08C31.68 16.44 30.6 13.24 29 10.68C34.08 12.4 37.88 15.8 39.12 20ZM24 8.08C26.16 10.96 27.72 14.76 28.32 20H19.68C20.28 14.76 21.84 10.96 24 8.08ZM8.88 28C8.56 26.72 8.4 25.36 8.4 24C8.4 22.64 8.56 21.28 8.88 20H16.76C16.6 21.32 16.48 22.64 16.48 24C16.48 25.36 16.6 26.68 16.76 28H8.88ZM8.88 28H16.76C17.16 31.56 18.24 34.76 19.84 37.32C14.76 35.6 10.96 32.2 8.88 28ZM24 39.92C21.84 37.04 20.28 33.24 19.68 28H28.32C27.72 33.24 26.16 37.04 24 39.92ZM29.16 28H18.84C18.64 26.68 18.52 25.36 18.52 24C18.52 22.64 18.64 21.32 18.84 20H29.16C29.36 21.32 29.48 22.64 29.48 24C29.48 25.36 29.36 26.68 29.16 28ZM29 37.32C30.6 34.76 31.68 31.56 32.08 28H39.12C37.88 32.2 34.08 35.6 29 37.32ZM31.24 28C31.4 26.68 31.52 25.36 31.52 24C31.52 22.64 31.4 21.32 31.24 20H39.12C39.44 21.28 39.6 22.64 39.6 24C39.6 25.36 39.44 26.72 39.12 28H31.24Z" fill="#FFFFFF"/>
</svg>
