<?xml version="1.0" encoding="UTF-8" standalone="no"?>
<svg xmlns="http://www.w3.org/2000/svg" width="120" height="200" viewBox="0 0 120 200">
  <!-- Demon Enemy (Pink Demon) -->
  <g transform="translate(60, 30)">
    <!-- Head -->
    <ellipse cx="0" cy="0" rx="30" ry="25" fill="#FF69B4"/>
    
    <!-- Eyes -->
    <circle cx="-12" cy="-5" r="5" fill="#FFFFFF"/>
    <circle cx="12" cy="-5" r="5" fill="#FFFFFF"/>
    <circle cx="-12" cy="-5" r="2" fill="#000000"/>
    <circle cx="12" cy="-5" r="2" fill="#000000"/>
    
    <!-- Mouth with teeth -->
    <path d="M-20,10 C-10,25 10,25 20,10" fill="#8B0000"/>
    <path d="M-18,10 L-15,18 L-12,10" fill="#FFFFFF"/>
    <path d="M-8,10 L-5,18 L-2,10" fill="#FFFFFF"/>
    <path d="M2,10 L5,18 L8,10" fill="#FFFFFF"/>
    <path d="M12,10 L15,18 L18,10" fill="#FFFFFF"/>
    
    <!-- Ears -->
    <path d="M-30,-5 L-40,-15 L-35,-25 L-25,-10 Z" fill="#FF69B4"/>
    <path d="M30,-5 L40,-15 L35,-25 L25,-10 Z" fill="#FF69B4"/>
    
    <!-- Body -->
    <ellipse cx="0" cy="60" rx="25" ry="40" fill="#FF69B4"/>
    
    <!-- Arms -->
    <path d="M-25,40 L-45,50 L-50,70 L-40,60 L-25,60" fill="#FF69B4"/>
    <path d="M25,40 L45,50 L50,70 L40,60 L25,60" fill="#FF69B4"/>
    
    <!-- Claws -->
    <path d="M-50,70 L-55,65 L-52,68 L-57,63 L-54,66 L-59,61" stroke="#8B0000" stroke-width="2" fill="none"/>
    <path d="M50,70 L55,65 L52,68 L57,63 L54,66 L59,61" stroke="#8B0000" stroke-width="2" fill="none"/>
    
    <!-- Legs -->
    <path d="M-15,100 L-25,140 L-20,150 L-10,140 L-5,100" fill="#FF69B4"/>
    <path d="M15,100 L25,140 L20,150 L10,140 L5,100" fill="#FF69B4"/>
    
    <!-- Feet with claws -->
    <path d="M-25,140 L-35,145 L-20,150" fill="#8B0000"/>
    <path d="M25,140 L35,145 L20,150" fill="#8B0000"/>
    
    <!-- Tail -->
    <path d="M0,100 C-10,120 -20,130 -30,150" stroke="#FF69B4" stroke-width="10" fill="none"/>
    <path d="M-30,150 L-40,145 L-35,155" fill="#FF69B4"/>
  </g>
</svg>
