<?xml version="1.0" encoding="UTF-8" standalone="no"?>
<svg xmlns="http://www.w3.org/2000/svg" width="100" height="100" viewBox="0 0 100 100">
  <!-- Muzzle Flash -->
  <g transform="translate(50, 50)">
    <!-- Center burst -->
    <circle cx="0" cy="0" r="20" fill="#FFF176"/>
    <circle cx="0" cy="0" r="15" fill="#FFEE58"/>
    <circle cx="0" cy="0" r="10" fill="#FFEB3B"/>
    
    <!-- Rays -->
    <polygon points="0,0 -5,-40 0,-30 5,-40" fill="#FFEE58"/>
    <polygon points="0,0 30,-30 20,-20 40,-40" fill="#FFEE58"/>
    <polygon points="0,0 40,-5 30,0 40,5" fill="#FFEE58"/>
    <polygon points="0,0 30,30 20,20 40,40" fill="#FFEE58"/>
    <polygon points="0,0 -5,40 0,30 5,40" fill="#FFEE58"/>
    <polygon points="0,0 -30,30 -20,20 -40,40" fill="#FFEE58"/>
    <polygon points="0,0 -40,-5 -30,0 -40,5" fill="#FFEE58"/>
    <polygon points="0,0 -30,-30 -20,-20 -40,-40" fill="#FFEE58"/>
    
    <!-- Glow effect -->
    <circle cx="0" cy="0" r="45" fill="url(#glow)"/>
  </g>
  
  <!-- Gradient for glow -->
  <defs>
    <radialGradient id="glow" cx="50%" cy="50%" r="50%" fx="50%" fy="50%">
      <stop offset="0%" stop-color="#FFEB3B" stop-opacity="0.8"/>
      <stop offset="50%" stop-color="#FFC107" stop-opacity="0.4"/>
      <stop offset="100%" stop-color="#FF9800" stop-opacity="0"/>
    </radialGradient>
  </defs>
</svg>
