<?xml version="1.0" encoding="UTF-8" standalone="no"?>
<svg xmlns="http://www.w3.org/2000/svg" width="200" height="150" viewBox="0 0 200 150">
  <!-- Chaingun -->
  <g transform="translate(30, 20)">
    <!-- Multiple barrels -->
    <g transform="rotate(0, 70, 50)">
      <rect x="30" y="40" width="80" height="10" fill="#555" stroke="#333" stroke-width="1"/>
    </g>
    <g transform="rotate(60, 70, 50)">
      <rect x="30" y="40" width="80" height="10" fill="#555" stroke="#333" stroke-width="1"/>
    </g>
    <g transform="rotate(120, 70, 50)">
      <rect x="30" y="40" width="80" height="10" fill="#555" stroke="#333" stroke-width="1"/>
    </g>
    <g transform="rotate(180, 70, 50)">
      <rect x="30" y="40" width="80" height="10" fill="#555" stroke="#333" stroke-width="1"/>
    </g>
    <g transform="rotate(240, 70, 50)">
      <rect x="30" y="40" width="80" height="10" fill="#555" stroke="#333" stroke-width="1"/>
    </g>
    <g transform="rotate(300, 70, 50)">
      <rect x="30" y="40" width="80" height="10" fill="#555" stroke="#333" stroke-width="1"/>
    </g>
    
    <!-- Central hub -->
    <circle cx="70" cy="50" r="20" fill="#777" stroke="#333" stroke-width="2"/>
    <circle cx="70" cy="50" r="10" fill="#555" stroke="#333" stroke-width="1"/>
    <circle cx="70" cy="50" r="5" fill="#333"/>
    
    <!-- Gun body -->
    <rect x="0" y="40" width="40" height="40" rx="5" ry="5" fill="#777" stroke="#333" stroke-width="2"/>
    
    <!-- Ammo belt -->
    <path d="M0,60 L-20,70 L-20,90 L0,80 Z" fill="#FFA500" stroke="#333" stroke-width="1"/>
    <rect x="-20" y="70" width="20" height="20" fill="#FFA500" stroke="#333" stroke-width="1"/>
    <line x1="-20" y1="75" x2="0" y2="65" stroke="#333" stroke-width="1"/>
    <line x1="-20" y1="80" x2="0" y2="70" stroke="#333" stroke-width="1"/>
    <line x1="-20" y1="85" x2="0" y2="75" stroke="#333" stroke-width="1"/>
    
    <!-- Trigger guard -->
    <path d="M10,80 L10,100 L30,100 L30,80" fill="#555" stroke="#333" stroke-width="2"/>
    
    <!-- Trigger -->
    <rect x="15" y="85" width="5" height="10" fill="#333"/>
    
    <!-- Handle -->
    <rect x="40" y="80" width="30" height="40" rx="5" ry="5" fill="#8B4513" stroke="#333" stroke-width="2"/>
    
    <!-- Hand -->
    <path d="M30,100 C30,110 50,120 70,110 L70,80 L30,80 Z" fill="#A0522D" stroke="#333" stroke-width="1"/>
  </g>
</svg>
