<?xml version="1.0" encoding="UTF-8" standalone="no"?>
<svg xmlns="http://www.w3.org/2000/svg" width="800" height="600" viewBox="0 0 800 600">
  <!-- Sky background with gradient -->
  <rect x="0" y="0" width="800" height="420" fill="url(#sky-gradient)"/>
  
  <!-- Ground with gradient -->
  <rect x="0" y="420" width="800" height="180" fill="url(#ground-gradient)"/>
  
  <!-- Sun -->
  <circle cx="700" cy="100" r="50" fill="#FFD700"/>
  
  <!-- Clouds -->
  <g fill="#FFFFFF" opacity="0.8">
    <ellipse cx="150" cy="100" rx="60" ry="30"/>
    <ellipse cx="200" cy="90" rx="70" ry="40"/>
    <ellipse cx="250" cy="110" rx="50" ry="25"/>
    
    <ellipse cx="500" cy="150" rx="80" ry="40"/>
    <ellipse cx="550" cy="140" rx="60" ry="30"/>
    <ellipse cx="600" cy="160" rx="70" ry="35"/>
  </g>
  
  <!-- Trees in background -->
  <g>
    <path d="M100,420 L120,420 L110,350 Z" fill="#228B22"/>
    <rect x="107" y="420" width="6" height="20" fill="#8B4513"/>
    
    <path d="M150,420 L180,420 L165,330 Z" fill="#228B22"/>
    <rect x="162" y="420" width="6" height="25" fill="#8B4513"/>
    
    <path d="M220,420 L250,420 L235,340 Z" fill="#228B22"/>
    <rect x="232" y="420" width="6" height="22" fill="#8B4513"/>
    
    <path d="M600,420 L630,420 L615,350 Z" fill="#228B22"/>
    <rect x="612" y="420" width="6" height="20" fill="#8B4513"/>
    
    <path d="M650,420 L680,420 L665,330 Z" fill="#228B22"/>
    <rect x="662" y="420" width="6" height="25" fill="#8B4513"/>
    
    <path d="M700,420 L730,420 L715,340 Z" fill="#228B22"/>
    <rect x="712" y="420" width="6" height="22" fill="#8B4513"/>
  </g>
  
  <!-- Bushes in foreground -->
  <g>
    <ellipse cx="50" cy="450" rx="30" ry="20" fill="#006400"/>
    <ellipse cx="200" cy="460" rx="40" ry="25" fill="#006400"/>
    <ellipse cx="350" cy="455" rx="35" ry="22" fill="#006400"/>
    <ellipse cx="500" cy="465" rx="45" ry="30" fill="#006400"/>
    <ellipse cx="650" cy="450" rx="30" ry="20" fill="#006400"/>
    <ellipse cx="750" cy="460" rx="40" ry="25" fill="#006400"/>
  </g>
  
  <!-- Grass details -->
  <g stroke="#228B22" stroke-width="2">
    <line x1="20" y1="420" x2="25" y2="410" />
    <line x1="30" y1="420" x2="35" y2="405" />
    <line x1="40" y1="420" x2="38" y2="408" />
    
    <line x1="300" y1="420" x2="305" y2="410" />
    <line x1="310" y1="420" x2="315" y2="405" />
    <line x1="320" y1="420" x2="318" y2="408" />
    
    <line x1="400" y1="420" x2="405" y2="410" />
    <line x1="410" y1="420" x2="415" y2="405" />
    <line x1="420" y1="420" x2="418" y2="408" />
    
    <line x1="550" y1="420" x2="555" y2="410" />
    <line x1="560" y1="420" x2="565" y2="405" />
    <line x1="570" y1="420" x2="568" y2="408" />
  </g>
  
  <!-- Gradients -->
  <defs>
    <linearGradient id="sky-gradient" x1="0%" y1="0%" x2="0%" y2="100%">
      <stop offset="0%" stop-color="#1E90FF"/>
      <stop offset="100%" stop-color="#87CEEB"/>
    </linearGradient>
    
    <linearGradient id="ground-gradient" x1="0%" y1="0%" x2="0%" y2="100%">
      <stop offset="0%" stop-color="#8B4513"/>
      <stop offset="100%" stop-color="#654321"/>
    </linearGradient>
  </defs>
</svg>
