<?xml version="1.0" encoding="UTF-8"?>
<svg width="32" height="32" viewBox="0 0 32 32" xmlns="http://www.w3.org/2000/svg">
  <defs>
    <linearGradient id="notepad-gradient" x1="0%" y1="0%" x2="100%" y2="100%">
      <stop offset="0%" stop-color="#f0f0f0" />
      <stop offset="100%" stop-color="#d0d0d0" />
    </linearGradient>
    <filter id="shadow" x="-10%" y="-10%" width="120%" height="120%">
      <feDropShadow dx="0.5" dy="0.5" stdDeviation="0.5" flood-color="#000" flood-opacity="0.5"/>
    </filter>
  </defs>

  <!-- Notepad Base -->
  <rect x="6" y="4" width="18" height="24" rx="1" fill="url(#notepad-gradient)" stroke="#333" stroke-width="0.5" filter="url(#shadow)"/>

  <!-- Spiral Binding -->
  <rect x="6" y="4" width="18" height="2" rx="1" fill="#FF6B00" stroke="#333" stroke-width="0.3"/>
  <circle cx="8" cy="5" r="0.7" fill="#fff" stroke="#333" stroke-width="0.2"/>
  <circle cx="11" cy="5" r="0.7" fill="#fff" stroke="#333" stroke-width="0.2"/>
  <circle cx="14" cy="5" r="0.7" fill="#fff" stroke="#333" stroke-width="0.2"/>
  <circle cx="17" cy="5" r="0.7" fill="#fff" stroke="#333" stroke-width="0.2"/>
  <circle cx="20" cy="5" r="0.7" fill="#fff" stroke="#333" stroke-width="0.2"/>
  <circle cx="23" cy="5" r="0.7" fill="#fff" stroke="#333" stroke-width="0.2"/>

  <!-- Notepad Lines -->
  <line x1="8" y1="9" x2="22" y2="9" stroke="#aaa" stroke-width="0.3"/>
  <line x1="8" y1="12" x2="22" y2="12" stroke="#aaa" stroke-width="0.3"/>
  <line x1="8" y1="15" x2="22" y2="15" stroke="#aaa" stroke-width="0.3"/>
  <line x1="8" y1="18" x2="22" y2="18" stroke="#aaa" stroke-width="0.3"/>
  <line x1="8" y1="21" x2="22" y2="21" stroke="#aaa" stroke-width="0.3"/>
  <line x1="8" y1="24" x2="22" y2="24" stroke="#aaa" stroke-width="0.3"/>

  <!-- Text Content -->
  <path d="M9 8 L12 8 M14 8 L18 8" stroke="#4C1D95" stroke-width="0.8"/>
  <path d="M9 11 L16 11 M18 11 L20 11" stroke="#4C1D95" stroke-width="0.8"/>
  <path d="M9 14 L14 14" stroke="#4C1D95" stroke-width="0.8"/>
  <path d="M9 17 L19 17" stroke="#4C1D95" stroke-width="0.8"/>
  <path d="M9 20 L15 20" stroke="#4C1D95" stroke-width="0.8"/>
  <path d="M9 23 L17 23" stroke="#4C1D95" stroke-width="0.8"/>

  <!-- Pencil -->
  <polygon points="22,20 24,18 25,19 23,21" fill="#FF6B00" stroke="#333" stroke-width="0.3"/>
  <polygon points="23,21 25,19 26,22" fill="#FF6B00" stroke="#333" stroke-width="0.3"/>
  <rect x="24" y="17.5" width="1.5" height="1" transform="rotate(45, 24.75, 18)" fill="#333"/>

  <!-- Nosyt Branding -->
  <text x="15" y="27" font-family="Arial, sans-serif" font-size="2" text-anchor="middle" fill="#4C1D95" font-weight="bold">NOSYT NOTES</text>
</svg>