<?xml version="1.0" encoding="UTF-8" standalone="no"?>
<svg xmlns="http://www.w3.org/2000/svg" width="48" height="48" viewBox="0 0 48 48">
  <circle cx="24" cy="24" r="20" fill="#F0F0F0" stroke="#808080" stroke-width="1"/>
  <path d="M24 4C12.95 4 4 12.95 4 24C4 35.05 12.95 44 24 44C35.05 44 44 35.05 44 24C44 12.95 35.05 4 24 4ZM24 40C15.18 40 8 32.82 8 24C8 15.18 15.18 8 24 8C32.82 8 40 15.18 40 24C40 32.82 32.82 40 24 40Z" fill="#808080"/>
  <path d="M31.49 16.51L24 24L16.51 16.51C14.14 18.88 12.88 22.29 13.17 25.76C13.46 29.23 15.26 32.41 18.12 34.42C20.97 36.43 24.6 37.06 28 36.13C31.4 35.21 34.22 32.83 35.65 29.61C37.08 26.39 36.97 22.71 35.35 19.58C33.73 16.45 30.77 14.25 27.32 13.52C26.2 13.31 25.06 13.25 23.93 13.34" stroke="#000000" stroke-width="2"/>
  <circle cx="24" cy="24" r="4" fill="#C0C0C0" stroke="#000000" stroke-width="1"/>
</svg>
