<svg width="400" height="300" viewBox="0 0 400 300" xmlns="http://www.w3.org/2000/svg">
  <defs>
    <linearGradient id="aiGradient" x1="0%" y1="0%" x2="100%" y2="100%">
      <stop offset="0%" style="stop-color:#667eea;stop-opacity:1" />
      <stop offset="100%" style="stop-color:#764ba2;stop-opacity:1" />
    </linearGradient>
    <linearGradient id="brainGradient" x1="0%" y1="0%" x2="100%" y2="100%">
      <stop offset="0%" style="stop-color:#4facfe;stop-opacity:1" />
      <stop offset="100%" style="stop-color:#00f2fe;stop-opacity:1" />
    </linearGradient>
  </defs>
  
  <!-- Background -->
  <rect width="400" height="300" fill="url(#aiGradient)"/>
  
  <!-- Main Container -->
  <rect x="40" y="40" width="320" height="220" rx="20" fill="#ffffff" stroke="#e2e8f0" stroke-width="2"/>
  
  <!-- Header -->
  <rect x="40" y="40" width="320" height="60" rx="20" fill="#f8fafc"/>
  <rect x="40" y="85" width="320" height="1" fill="#e2e8f0"/>
  
  <!-- AI Brain Icon -->
  <circle cx="80" cy="70" r="20" fill="url(#brainGradient)"/>
  <path d="M 65 70 Q 70 60, 80 65 Q 90 60, 95 70 Q 90 80, 80 75 Q 70 80, 65 70" fill="rgba(255,255,255,0.3)"/>
  <circle cx="75" cy="68" r="2" fill="white"/>
  <circle cx="85" cy="68" r="2" fill="white"/>
  <path d="M 72 75 Q 80 78, 88 75" stroke="white" stroke-width="1.5" fill="none"/>
  
  <!-- Title -->
  <rect x="110" y="55" width="120" height="8" rx="4" fill="#374151"/>
  <rect x="110" y="68" width="80" height="5" rx="2.5" fill="#9ca3af"/>
  <rect x="110" y="78" width="60" height="4" rx="2" fill="#cbd5e1"/>
  
  <!-- Action Buttons -->
  <rect x="280" y="55" width="60" height="25" rx="12" fill="#667eea"/>
  <rect x="290" y="62" width="40" height="3" rx="1.5" fill="white"/>
  <rect x="295" y="68" width="30" height="3" rx="1.5" fill="white"/>
  
  <!-- Content Generation Area -->
  <rect x="60" y="120" width="280" height="120" rx="12" fill="#f8fafc" stroke="#e2e8f0" stroke-width="1"/>
  
  <!-- Input Section -->
  <rect x="70" y="130" width="260" height="30" rx="6" fill="white" stroke="#d1d5db" stroke-width="1"/>
  <rect x="80" y="138" width="100" height="4" rx="2" fill="#9ca3af"/>
  <rect x="80" y="146" width="80" height="3" rx="1.5" fill="#cbd5e1"/>
  
  <!-- Generate Button -->
  <rect x="280" y="135" width="40" height="20" rx="10" fill="#10b981"/>
  <rect x="290" y="142" width="20" height="3" rx="1.5" fill="white"/>
  <rect x="292" y="147" width="16" height="2" rx="1" fill="white"/>
  
  <!-- Generated Content -->
  <rect x="70" y="175" width="260" height="55" rx="6" fill="white" stroke="#d1d5db" stroke-width="1"/>
  
  <!-- Content Lines -->
  <rect x="80" y="185" width="200" height="3" rx="1.5" fill="#374151"/>
  <rect x="80" y="192" width="240" height="3" rx="1.5" fill="#374151"/>
  <rect x="80" y="199" width="180" height="3" rx="1.5" fill="#374151"/>
  <rect x="80" y="206" width="220" height="3" rx="1.5" fill="#374151"/>
  <rect x="80" y="213" width="160" height="3" rx="1.5" fill="#374151"/>
  <rect x="80" y="220" width="190" height="3" rx="1.5" fill="#374151"/>
  
  <!-- AI Processing Indicators -->
  <circle cx="300" cy="185" r="3" fill="hsl(185, 75%, 50%)">
    <animate attributeName="opacity" values="0.3;1;0.3" dur="1.5s" repeatCount="indefinite"/>
  </circle>
  <circle cx="310" cy="185" r="3" fill="hsl(185, 75%, 50%)">
    <animate attributeName="opacity" values="0.3;1;0.3" dur="1.5s" begin="0.5s" repeatCount="indefinite"/>
  </circle>
  <circle cx="320" cy="185" r="3" fill="hsl(185, 75%, 50%)">
    <animate attributeName="opacity" values="0.3;1;0.3" dur="1.5s" begin="1s" repeatCount="indefinite"/>
  </circle>
  
  <!-- Stats/Metrics -->
  <rect x="280" y="200" width="50" height="25" rx="6" fill="#ecfdf5" stroke="#22c55e" stroke-width="1"/>
  <rect x="285" y="207" width="20" height="3" rx="1.5" fill="#22c55e"/>
  <rect x="285" y="213" width="30" height="2" rx="1" fill="#16a34a"/>
  <rect x="285" y="218" width="25" height="2" rx="1" fill="#9ca3af"/>
</svg>