<svg width="400" height="250" viewBox="0 0 400 250" fill="none" xmlns="http://www.w3.org/2000/svg">
  <rect width="400" height="250" fill="#f8fafc"/>
  <rect x="20" y="20" width="360" height="210" rx="12" fill="white" stroke="#e2e8f0" stroke-width="2"/>
  
  <!-- Header -->
  <rect x="40" y="40" width="320" height="40" rx="8" fill="#3b82f6"/>
  <circle cx="60" cy="60" r="8" fill="white"/>
  <rect x="80" y="55" width="80" height="10" rx="5" fill="white"/>
  
  <!-- Chat Messages -->
  <rect x="60" y="100" width="200" height="30" rx="15" fill="#e5e7eb"/>
  <rect x="60" y="105" width="150" height="5" rx="2.5" fill="#9ca3af"/>
  <rect x="60" y="115" width="120" height="5" rx="2.5" fill="#9ca3af"/>
  
  <rect x="140" y="140" width="200" height="30" rx="15" fill="#3b82f6"/>
  <rect x="160" y="145" width="140" height="5" rx="2.5" fill="white"/>
  <rect x="160" y="155" width="100" height="5" rx="2.5" fill="white"/>
  
  <rect x="60" y="180" width="180" height="30" rx="15" fill="#e5e7eb"/>
  <rect x="60" y="185" width="130" height="5" rx="2.5" fill="#9ca3af"/>
  <rect x="60" y="195" width="90" height="5" rx="2.5" fill="#9ca3af"/>
  
  <!-- AI Icon -->
  <circle cx="320" cy="60" r="12" fill="#10b981"/>
  <path d="M315 55 L320 60 L325 55" stroke="white" stroke-width="2" fill="none"/>
  <path d="M315 65 L320 60 L325 65" stroke="white" stroke-width="2" fill="none"/>
</svg>