<svg width="400" height="300" viewBox="0 0 400 300" xmlns="http://www.w3.org/2000/svg">
  <defs>
    <linearGradient id="blockchainGradient" x1="0%" y1="0%" x2="100%" y2="100%">
      <stop offset="0%" style="stop-color:#667eea;stop-opacity:1" />
      <stop offset="100%" style="stop-color:#764ba2;stop-opacity:1" />
    </linearGradient>
    <linearGradient id="walletGradient" x1="0%" y1="0%" x2="100%" y2="100%">
      <stop offset="0%" style="stop-color:#f093fb;stop-opacity:1" />
      <stop offset="100%" style="stop-color:#f5576c;stop-opacity:1" />
    </linearGradient>
    <linearGradient id="coinGradient" x1="0%" y1="0%" x2="100%" y2="100%">
      <stop offset="0%" style="stop-color:#ffd89b;stop-opacity:1" />
      <stop offset="100%" style="stop-color:#19547b;stop-opacity:1" />
    </linearGradient>
  </defs>
  
  <!-- Background -->
  <rect width="400" height="300" fill="url(#blockchainGradient)"/>
  
  <!-- Mobile Wallet Interface -->
  <rect x="120" y="30" width="160" height="240" rx="20" fill="#1f2937" stroke="#374151" stroke-width="2"/>
  <rect x="130" y="40" width="140" height="220" rx="15" fill="#111827"/>
  
  <!-- Screen Header -->
  <rect x="130" y="40" width="140" height="35" rx="15" fill="#1f2937"/>
  <rect x="130" y="65" width="140" height="1" fill="#374151"/>
  
  <!-- Status Bar -->
  <rect x="140" y="48" width="30" height="4" rx="2" fill="#6b7280"/>
  <rect x="240" y="48" width="20" height="4" rx="2" fill="#10b981"/>
  <circle cx="265" cy="50" r="2" fill="#10b981"/>
  
  <!-- Wallet Title -->
  <rect x="140" y="85" width="60" height="6" rx="3" fill="#f9fafb"/>
  <rect x="140" y="95" width="40" height="4" rx="2" fill="#9ca3af"/>
  
  <!-- Balance Display -->
  <rect x="140" y="110" width="120" height="40" rx="8" fill="#374151" stroke="#4b5563" stroke-width="1"/>
  <rect x="150" y="120" width="30" height="4" rx="2" fill="#9ca3af"/>
  <rect x="150" y="128" width="80" height="8" rx="4" fill="#f9fafb"/>
  <rect x="150" y="140" width="50" height="4" rx="2" fill="#6b7280"/>
  
  <!-- Cryptocurrency Icons -->
  <circle cx="160" cy="170" r="12" fill="url(#coinGradient)"/>
  <rect x="155" y="165" width="10" height="10" rx="2" fill="hsl(185, 75%, 50%)"/>
  <rect x="180" y="165" width="40" height="4" rx="2" fill="#f9fafb"/>
  <rect x="180" y="172" width="25" height="3" rx="1.5" fill="#9ca3af"/>
  <rect x="230" y="165" width="25" height="4" rx="2" fill="#10b981"/>
  
  <circle cx="160" cy="195" r="12" fill="#6366f1"/>
  <rect x="155" y="190" width="10" height="10" rx="2" fill="#a5b4fc"/>
  <rect x="180" y="190" width="35" height="4" rx="2" fill="#f9fafb"/>
  <rect x="180" y="197" width="30" height="3" rx="1.5" fill="#9ca3af"/>
  <rect x="230" y="190" width="20" height="4" rx="2" fill="#ef4444"/>
  
  <circle cx="160" cy="220" r="12" fill="#10b981"/>
  <rect x="155" y="215" width="10" height="10" rx="2" fill="#34d399"/>
  <rect x="180" y="215" width="45" height="4" rx="2" fill="#f9fafb"/>
  <rect x="180" y="222" width="20" height="3" rx="1.5" fill="#9ca3af"/>
  <rect x="230" y="215" width="30" height="4" rx="2" fill="#10b981"/>
  
  <!-- Action Buttons -->
  <rect x="140" y="240" width="35" height="15" rx="7.5" fill="url(#walletGradient)"/>
  <rect x="145" y="245" width="25" height="2" rx="1" fill="white"/>
  <rect x="145" y="249" width="15" height="2" rx="1" fill="white"/>
  
  <rect x="185" y="240" width="35" height="15" rx="7.5" fill="#374151" stroke="#4b5563" stroke-width="1"/>
  <rect x="190" y="245" width="25" height="2" rx="1" fill="#f9fafb"/>
  <rect x="190" y="249" width="20" height="2" rx="1" fill="#f9fafb"/>
  
  <rect x="230" y="240" width="25" height="15" rx="7.5" fill="#374151" stroke="#4b5563" stroke-width="1"/>
  <circle cx="242" cy="247" r="3" fill="#f9fafb"/>
  
  <!-- Blockchain Network Visualization -->
  <g transform="translate(50, 150)">
    <!-- Block Chain -->
    <rect x="0" y="0" width="20" height="20" rx="4" fill="#4f46e5" stroke="#6366f1" stroke-width="1">
      <animate attributeName="fill" values="#4f46e5;#6366f1;#4f46e5" dur="3s" repeatCount="indefinite"/>
    </rect>
    <rect x="3" y="3" width="14" height="6" rx="2" fill="#a5b4fc"/>
    <rect x="3" y="11" width="10" height="2" rx="1" fill="#c7d2fe"/>
    <rect x="3" y="15" width="8" height="2" rx="1" fill="#c7d2fe"/>
    
    <!-- Connection Line -->
    <line x1="20" y1="10" x2="30" y2="10" stroke="#6b7280" stroke-width="2" stroke-dasharray="2,2">
      <animate attributeName="stroke-dashoffset" values="0;4" dur="1s" repeatCount="indefinite"/>
    </line>
    
    <!-- Second Block -->
    <rect x="30" y="0" width="20" height="20" rx="4" fill="#059669" stroke="#10b981" stroke-width="1">
      <animate attributeName="fill" values="#059669;#10b981;#059669" dur="3s" begin="1s" repeatCount="indefinite"/>
    </rect>
    <rect x="33" y="3" width="14" height="6" rx="2" fill="#6ee7b7"/>
    <rect x="33" y="11" width="12" height="2" rx="1" fill="#a7f3d0"/>
    <rect x="33" y="15" width="9" height="2" rx="1" fill="#a7f3d0"/>
  </g>
  
  <!-- Security Elements -->
  <g transform="translate(320, 80)">
    <!-- Shield Icon -->
    <path d="M10 2 L18 6 L18 14 C18 18 14 22 10 22 C6 22 2 18 2 14 L2 6 Z" fill="#10b981" stroke="#059669" stroke-width="1"/>
    <path d="M6 12 L9 15 L14 8" stroke="white" stroke-width="2" fill="none" stroke-linecap="round" stroke-linejoin="round"/>
    
    <!-- Lock Icon -->
    <g transform="translate(0, 40)">
      <rect x="4" y="10" width="12" height="8" rx="2" fill="#374151" stroke="#4b5563" stroke-width="1"/>
      <path d="M6 10 L6 7 C6 4.8 7.8 3 10 3 C12.2 3 14 4.8 14 7 L14 10" stroke="#6b7280" stroke-width="2" fill="none"/>
      <circle cx="10" cy="14" r="1.5" fill="#9ca3af"/>
    </g>
  </g>
  
  <!-- Transaction Flow -->
  <g transform="translate(320, 180)">
    <!-- Outgoing Transaction -->
    <circle cx="10" cy="10" r="8" fill="#ef4444" stroke="#dc2626" stroke-width="1">
      <animate attributeName="r" values="8;10;8" dur="2s" repeatCount="indefinite"/>
    </circle>
    <path d="M6 10 L14 10 M11 7 L14 10 L11 13" stroke="white" stroke-width="2" fill="none" stroke-linecap="round" stroke-linejoin="round"/>
    
    <!-- Incoming Transaction -->
    <circle cx="10" cy="30" r="8" fill="#10b981" stroke="#059669" stroke-width="1">
      <animate attributeName="r" values="8;10;8" dur="2s" begin="1s" repeatCount="indefinite"/>
    </circle>
    <path d="M14 30 L6 30 M9 27 L6 30 L9 33" stroke="white" stroke-width="2" fill="none" stroke-linecap="round" stroke-linejoin="round"/>
  </g>
</svg>