<svg width="400" height="300" viewBox="0 0 400 300" fill="none" xmlns="http://www.w3.org/2000/svg">
  <!-- Browser Window -->
  <rect width="400" height="300" rx="8" fill="#f8fafc"/>
  <rect width="400" height="40" rx="8" fill="#e2e8f0"/>
  <rect x="0" y="32" width="400" height="8" fill="#e2e8f0"/>
  
  <!-- Browser Buttons -->
  <circle cx="20" cy="20" r="6" fill="#ef4444"/>
  <circle cx="40" cy="20" r="6" fill="#f59e0b"/>
  <circle cx="60" cy="20" r="6" fill="#10b981"/>
  
  <!-- URL Bar -->
  <rect x="100" y="12" width="280" height="16" rx="8" fill="white"/>
  <text x="110" y="23" font-family="Arial, sans-serif" font-size="10" fill="#64748b">nosytlabs.com</text>
  
  <!-- Website Content -->
  <rect x="20" y="60" width="360" height="60" rx="4" fill="url(#heroGradient)"/>
  <text x="30" y="85" font-family="Arial, sans-serif" font-size="16" font-weight="bold" fill="white">NosytLabs</text>
  <text x="30" y="105" font-family="Arial, sans-serif" font-size="10" fill="rgba(255,255,255,0.8)">Modern Web Development Solutions</text>
  
  <!-- Content Sections -->
  <rect x="20" y="140" width="110" height="80" rx="4" fill="white" stroke="#e2e8f0"/>
  <rect x="145" y="140" width="110" height="80" rx="4" fill="white" stroke="#e2e8f0"/>
  <rect x="270" y="140" width="110" height="80" rx="4" fill="white" stroke="#e2e8f0"/>
  
  <!-- Section Content -->
  <text x="30" y="160" font-family="Arial, sans-serif" font-size="12" font-weight="bold" fill="#1e293b">Web Development</text>
  <text x="155" y="160" font-family="Arial, sans-serif" font-size="12" font-weight="bold" fill="#1e293b">AI Integration</text>
  <text x="280" y="160" font-family="Arial, sans-serif" font-size="12" font-weight="bold" fill="#1e293b">Consulting</text>
  
  <!-- Footer -->
  <rect x="20" y="240" width="360" height="40" rx="4" fill="#1e293b"/>
  <text x="30" y="265" font-family="Arial, sans-serif" font-size="10" fill="white">© 2025 NosytLabs</text>
  
  <!-- Gradient Definition -->
  <defs>
    <linearGradient id="heroGradient" x1="0%" y1="0%" x2="100%" y2="100%">
      <stop offset="0%" style="stop-color:#7c3aed;stop-opacity:1" />
      <stop offset="100%" style="stop-color:#ff6b35;stop-opacity:1" />
    </linearGradient>
  </defs>
</svg>
