<svg width="400" height="300" viewBox="0 0 400 300" xmlns="http://www.w3.org/2000/svg">
  <defs>
    <linearGradient id="dashboardGradient" x1="0%" y1="0%" x2="100%" y2="100%">
      <stop offset="0%" style="stop-color:#667eea;stop-opacity:1" />
      <stop offset="100%" style="stop-color:#764ba2;stop-opacity:1" />
    </linearGradient>
    <linearGradient id="chartGradient" x1="0%" y1="100%" x2="0%" y2="0%">
      <stop offset="0%" style="stop-color:#4facfe;stop-opacity:0.8" />
      <stop offset="100%" style="stop-color:#00f2fe;stop-opacity:0.2" />
    </linearGradient>
  </defs>
  
  <!-- Background -->
  <rect width="400" height="300" fill="url(#dashboardGradient)"/>
  
  <!-- Dashboard Container -->
  <rect x="30" y="30" width="340" height="240" rx="15" fill="#ffffff" stroke="#e2e8f0" stroke-width="1"/>
  
  <!-- Header -->
  <rect x="30" y="30" width="340" height="50" rx="15" fill="#f8fafc"/>
  <rect x="30" y="65" width="340" height="1" fill="#e2e8f0"/>
  
  <!-- Logo/Title -->
  <circle cx="55" cy="55" r="12" fill="#667eea"/>
  <rect x="75" y="48" width="80" height="6" rx="3" fill="#374151"/>
  <rect x="75" y="58" width="50" height="4" rx="2" fill="#9ca3af"/>
  
  <!-- Navigation -->
  <rect x="280" y="48" width="15" height="4" rx="2" fill="#cbd5e1"/>
  <rect x="300" y="48" width="15" height="4" rx="2" fill="#cbd5e1"/>
  <rect x="320" y="48" width="15" height="4" rx="2" fill="#667eea"/>
  
  <!-- Metrics Cards -->
  <rect x="50" y="100" width="70" height="50" rx="8" fill="#f0f9ff" stroke="#0ea5e9" stroke-width="1"/>
  <rect x="60" y="110" width="30" height="4" rx="2" fill="#0ea5e9"/>
  <rect x="60" y="118" width="50" height="8" rx="4" fill="#0284c7"/>
  <rect x="60" y="130" width="25" height="3" rx="1.5" fill="#64748b"/>
  
  <rect x="140" y="100" width="70" height="50" rx="8" fill="#f0fdf4" stroke="#22c55e" stroke-width="1"/>
  <rect x="150" y="110" width="35" height="4" rx="2" fill="#22c55e"/>
  <rect x="150" y="118" width="45" height="8" rx="4" fill="#16a34a"/>
  <rect x="150" y="130" width="30" height="3" rx="1.5" fill="#64748b"/>
  
  <rect x="230" y="100" width="70" height="50" rx="8" fill="#fef2f2" stroke="#ef4444" stroke-width="1"/>
  <rect x="240" y="110" width="28" height="4" rx="2" fill="#ef4444"/>
  <rect x="240" y="118" width="40" height="8" rx="4" fill="#dc2626"/>
  <rect x="240" y="130" width="35" height="3" rx="1.5" fill="#64748b"/>
  
  <!-- Chart Area -->
  <rect x="50" y="170" width="150" height="80" rx="8" fill="#f8fafc" stroke="#e2e8f0" stroke-width="1"/>
  
  <!-- Chart Bars -->
  <rect x="65" y="220" width="8" height="20" fill="#667eea"/>
  <rect x="78" y="210" width="8" height="30" fill="#667eea"/>
  <rect x="91" y="200" width="8" height="40" fill="#667eea"/>
  <rect x="104" y="195" width="8" height="45" fill="#667eea"/>
  <rect x="117" y="205" width="8" height="35" fill="#667eea"/>
  <rect x="130" y="190" width="8" height="50" fill="#667eea"/>
  <rect x="143" y="215" width="8" height="25" fill="#667eea"/>
  <rect x="156" y="200" width="8" height="40" fill="#667eea"/>
  <rect x="169" y="185" width="8" height="55" fill="#667eea"/>
  <rect x="182" y="195" width="8" height="45" fill="#667eea"/>
  
  <!-- Chart Area Fill -->
  <path d="M 65 220 L 78 210 L 91 200 L 104 195 L 117 205 L 130 190 L 143 215 L 156 200 L 169 185 L 182 195 L 190 240 L 65 240 Z" fill="url(#chartGradient)"/>
  
  <!-- Activity Feed -->
  <rect x="220" y="170" width="130" height="80" rx="8" fill="#f8fafc" stroke="#e2e8f0" stroke-width="1"/>
  
  <!-- Activity Items -->
  <circle cx="235" cy="185" r="4" fill="#10b981"/>
  <rect x="245" y="180" width="60" height="3" rx="1.5" fill="#374151"/>
  <rect x="245" y="186" width="40" height="2" rx="1" fill="#9ca3af"/>
  <rect x="315" y="180" width="20" height="3" rx="1.5" fill="#64748b"/>
  
  <circle cx="235" cy="200" r="4" fill="#f59e0b"/>
  <rect x="245" y="195" width="55" height="3" rx="1.5" fill="#374151"/>
  <rect x="245" y="201" width="35" height="2" rx="1" fill="#9ca3af"/>
  <rect x="315" y="195" width="18" height="3" rx="1.5" fill="#64748b"/>
  
  <circle cx="235" cy="215" r="4" fill="#8b5cf6"/>
  <rect x="245" y="210" width="50" height="3" rx="1.5" fill="#374151"/>
  <rect x="245" y="216" width="45" height="2" rx="1" fill="#9ca3af"/>
  <rect x="315" y="210" width="22" height="3" rx="1.5" fill="#64748b"/>
  
  <circle cx="235" cy="230" r="4" fill="#ef4444"/>
  <rect x="245" y="225" width="48" height="3" rx="1.5" fill="#374151"/>
  <rect x="245" y="231" width="30" height="2" rx="1" fill="#9ca3af"/>
  <rect x="315" y="225" width="25" height="3" rx="1.5" fill="#64748b"/>
</svg>