<?xml version="1.0" encoding="UTF-8"?>
<svg width="192" height="192" viewBox="0 0 100 100" xmlns="http://www.w3.org/2000/svg">
  <style>
    .nosyt-purple-dark { fill: #2D0A4F; }
    .nosyt-purple { fill: #4C1D95; }
    .nosyt-orange { fill: #FF6B00; }
  </style>
  <rect class="nosyt-purple-dark" x="0" y="0" width="100" height="100" rx="0" />
  <path class="nosyt-purple" d="M20 20 C20 20, 30 30, 40 30 C50 30, 50 20, 60 20 C70 20, 80 30, 80 40 C80 50, 70 60, 60 60 C50 60, 50 50, 40 50 C30 50, 20 60, 20 70 C20 80, 30 80, 40 80" stroke-width="15" stroke-linecap="round" fill="none" stroke="#4C1D95" />
  <path class="nosyt-orange" d="M60 40 C70 40, 80 50, 80 60 C80 70, 70 80, 60 80 L80 80 L90 70" stroke-width="15" stroke-linecap="round" fill="none" stroke="#FF6B00" />
</svg>
