<?xml version="1.0" encoding="UTF-8"?>
<svg width="64" height="64" viewBox="0 0 64 64" xmlns="http://www.w3.org/2000/svg">
  <defs>
    <linearGradient id="web-dev-gradient" x1="0%" y1="0%" x2="100%" y2="100%">
      <stop offset="0%" stop-color="#3A0CA3" />
      <stop offset="100%" stop-color="#5B21B6" />
    </linearGradient>
    <linearGradient id="accent-gradient" x1="0%" y1="0%" x2="100%" y2="100%">
      <stop offset="0%" stop-color="#FF6B00" />
      <stop offset="100%" stop-color="#FF9E00" />
    </linearGradient>
    <filter id="glow" x="-20%" y="-20%" width="140%" height="140%">
      <feGaussianBlur stdDeviation="2" result="blur" />
      <feComposite in="SourceGraphic" in2="blur" operator="over" />
    </filter>
  </defs>
  
  <!-- Monitor outline -->
  <rect x="6" y="8" width="52" height="36" rx="3" fill="url(#web-dev-gradient)" />
  <rect x="8" y="10" width="48" height="30" rx="2" fill="#1E1E1E" />
  
  <!-- Code elements -->
  <rect x="12" y="14" width="20" height="2" rx="1" fill="#61DAFB" opacity="0.8" />
  <rect x="12" y="18" width="30" height="2" rx="1" fill="#FFFFFF" opacity="0.6" />
  <rect x="12" y="22" width="25" height="2" rx="1" fill="#FF6B00" opacity="0.8" />
  <rect x="12" y="26" width="15" height="2" rx="1" fill="#FFFFFF" opacity="0.6" />
  <rect x="12" y="30" width="28" height="2" rx="1" fill="#61DAFB" opacity="0.8" />
  <rect x="12" y="34" width="22" height="2" rx="1" fill="#FF6B00" opacity="0.8" />
  
  <!-- Monitor stand -->
  <path d="M26 44 L38 44 L36 52 L28 52 Z" fill="url(#web-dev-gradient)" />
  <rect x="24" y="52" width="16" height="2" rx="1" fill="url(#web-dev-gradient)" />
  
  <!-- Glowing brackets -->
  <g filter="url(#glow)">
    <path d="M42 14 L45 14 L45 36 L42 36" fill="none" stroke="url(#accent-gradient)" stroke-width="2" stroke-linecap="round" stroke-linejoin="round" />
    <path d="M22 14 L19 14 L19 36 L22 36" fill="none" stroke="url(#accent-gradient)" stroke-width="2" stroke-linecap="round" stroke-linejoin="round" />
  </g>
</svg>
