<svg width="400" height="300" viewBox="0 0 400 300" xmlns="http://www.w3.org/2000/svg">
  <defs>
    <linearGradient id="chartGradient" x1="0%" y1="0%" x2="100%" y2="100%">
      <stop offset="0%" style="stop-color:#10b981;stop-opacity:1" />
      <stop offset="100%" style="stop-color:#059669;stop-opacity:1" />
    </linearGradient>
    <linearGradient id="seoGradient" x1="0%" y1="0%" x2="100%" y2="100%">
      <stop offset="0%" style="stop-color:#3b82f6;stop-opacity:1" />
      <stop offset="100%" style="stop-color:#1d4ed8;stop-opacity:1" />
    </linearGradient>
    <linearGradient id="consultingGradient" x1="0%" y1="0%" x2="100%" y2="100%">
      <stop offset="0%" style="stop-color:#8b5cf6;stop-opacity:1" />
      <stop offset="100%" style="stop-color:#7c3aed;stop-opacity:1" />
    </linearGradient>
  </defs>
  
  <!-- Background -->
  <rect width="400" height="300" fill="#f8fafc"/>
  
  <!-- Analytics Dashboard -->
  <g transform="translate(50, 50)">
    <rect x="0" y="0" width="300" height="180" rx="12" fill="#ffffff" stroke="#e2e8f0" stroke-width="2"/>
    
    <!-- Dashboard Header -->
    <rect x="0" y="0" width="300" height="40" rx="12" fill="url(#seoGradient)"/>
    <rect x="0" y="25" width="300" height="15" fill="url(#seoGradient)"/>
    <text x="20" y="25" font-family="sans-serif" font-size="12" fill="#ffffff">SEO Analytics Dashboard</text>
    
    <!-- Chart Area -->
    <g transform="translate(20, 60)">
      <!-- Growth Chart -->
      <rect x="0" y="0" width="120" height="80" rx="6" fill="#f1f5f9" stroke="#d1d5db" stroke-width="1"/>
      <text x="10" y="15" font-family="sans-serif" font-size="8" fill="#374151">Traffic Growth</text>
      
      <!-- Chart bars -->
      <rect x="15" y="60" width="8" height="15" fill="url(#chartGradient)"/>
      <rect x="28" y="50" width="8" height="25" fill="url(#chartGradient)"/>
      <rect x="41" y="40" width="8" height="35" fill="url(#chartGradient)"/>
      <rect x="54" y="30" width="8" height="45" fill="url(#chartGradient)"/>
      <rect x="67" y="25" width="8" height="50" fill="url(#chartGradient)"/>
      <rect x="80" y="20" width="8" height="55" fill="url(#chartGradient)"/>
      <rect x="93" y="15" width="8" height="60" fill="url(#chartGradient)"/>
      
      <!-- Trend line -->
      <path d="M19,67 L32,62 L45,57 L58,52 L71,50 L84,47 L97,45" 
            stroke="#ef4444" stroke-width="2" fill="none"/>
    </g>
    
    <!-- SEO Metrics -->
    <g transform="translate(160, 60)">
      <rect x="0" y="0" width="120" height="80" rx="6" fill="#f1f5f9" stroke="#d1d5db" stroke-width="1"/>
      <text x="10" y="15" font-family="sans-serif" font-size="8" fill="#374151">SEO Score</text>
      
      <!-- Circular progress -->
      <g transform="translate(60, 45)">
        <circle cx="0" cy="0" r="20" fill="none" stroke="#e5e7eb" stroke-width="4"/>
        <circle cx="0" cy="0" r="20" fill="none" stroke="url(#chartGradient)" stroke-width="4"
                stroke-dasharray="94.2" stroke-dashoffset="18.8" transform="rotate(-90)"/>
        <text x="0" y="5" font-family="sans-serif" font-size="12" fill="#374151" text-anchor="middle">85%</text>
      </g>
    </g>
    
    <!-- KPI Cards -->
    <g transform="translate(20, 150)">
      <rect x="0" y="0" width="60" height="30" rx="4" fill="url(#consultingGradient)" opacity="0.1"/>
      <text x="5" y="12" font-family="sans-serif" font-size="7" fill="#374151">Page Speed</text>
      <text x="5" y="22" font-family="sans-serif" font-size="10" fill="#059669" font-weight="bold">92/100</text>
    </g>
    
    <g transform="translate(90, 150)">
      <rect x="0" y="0" width="60" height="30" rx="4" fill="url(#seoGradient)" opacity="0.1"/>
      <text x="5" y="12" font-family="sans-serif" font-size="7" fill="#374151">Keywords</text>
      <text x="5" y="22" font-family="sans-serif" font-size="10" fill="#3b82f6" font-weight="bold">247</text>
    </g>
    
    <g transform="translate(160, 150)">
      <rect x="0" y="0" width="60" height="30" rx="4" fill="url(#chartGradient)" opacity="0.1"/>
      <text x="5" y="12" font-family="sans-serif" font-size="7" fill="#374151">Backlinks</text>
      <text x="5" y="22" font-family="sans-serif" font-size="10" fill="#10b981" font-weight="bold">1.2K</text>
    </g>
    
    <g transform="translate(230, 150)">
      <rect x="0" y="0" width="60" height="30" rx="4" fill="url(#consultingGradient)" opacity="0.1"/>
      <text x="5" y="12" font-family="sans-serif" font-size="7" fill="#374151">Conversion</text>
      <text x="5" y="22" font-family="sans-serif" font-size="10" fill="#8b5cf6" font-weight="bold">3.4%</text>
    </g>
  </g>
  
  <!-- Consulting Elements -->
  <g transform="translate(30, 250)">
    <circle cx="0" cy="0" r="15" fill="url(#consultingGradient)"/>
    <path d="M-8,-5 Q0,-10 8,-5 Q10,0 8,5 Q0,10 -8,5 Q-10,0 -8,-5" 
          fill="#ffffff" opacity="0.9"/>
    <text x="25" y="5" font-family="sans-serif" font-size="10" fill="#374151">Strategy</text>
  </g>
  
  <g transform="translate(120, 250)">
    <circle cx="0" cy="0" r="15" fill="url(#seoGradient)"/>
    <rect x="-6" y="-6" width="12" height="12" rx="2" fill="#ffffff"/>
    <path d="M-3,-3 L3,3 M-3,3 L3,-3" stroke="#3b82f6" stroke-width="1"/>
    <text x="25" y="5" font-family="sans-serif" font-size="10" fill="#374151">Analysis</text>
  </g>
  
  <g transform="translate(210, 250)">
    <circle cx="0" cy="0" r="15" fill="url(#chartGradient)"/>
    <polygon points="-6,4 0,-6 6,4" fill="#ffffff"/>
    <text x="25" y="5" font-family="sans-serif" font-size="10" fill="#374151">Growth</text>
  </g>
  
  <!-- Search Engine Results -->
  <g transform="translate(280, 80)">
    <rect x="0" y="0" width="100" height="120" rx="8" fill="#ffffff" stroke="#e5e7eb" stroke-width="1"/>
    <text x="10" y="15" font-family="sans-serif" font-size="8" fill="#374151">Search Results</text>
    
    <!-- Search result items -->
    <g transform="translate(10, 25)">
      <rect x="0" y="0" width="80" height="15" rx="2" fill="url(#chartGradient)" opacity="0.1"/>
      <text x="5" y="10" font-family="sans-serif" font-size="6" fill="#059669">#1 Result</text>
    </g>
    
    <g transform="translate(10, 45)">
      <rect x="0" y="0" width="80" height="15" rx="2" fill="#f3f4f6"/>
      <text x="5" y="10" font-family="sans-serif" font-size="6" fill="#6b7280">#2 Result</text>
    </g>
    
    <g transform="translate(10, 65)">
      <rect x="0" y="0" width="80" height="15" rx="2" fill="#f3f4f6"/>
      <text x="5" y="10" font-family="sans-serif" font-size="6" fill="#6b7280">#3 Result</text>
    </g>
    
    <!-- Ranking arrow -->
    <g transform="translate(85, 35)">
      <polygon points="0,0 5,-5 5,-2 10,-2 10,2 5,2 5,5" fill="#10b981"/>
    </g>
  </g>
  
  <!-- Technical Audit Tools -->
  <g transform="translate(20, 20)">
    <rect x="0" y="0" width="80" height="25" rx="4" fill="#1f2937" opacity="0.9"/>
    <text x="5" y="12" font-family="monospace" font-size="7" fill="#10b981">lighthouse</text>
    <text x="5" y="20" font-family="monospace" font-size="7" fill="#3b82f6">audit --seo</text>
  </g>
  
  <!-- Performance Indicators -->
  <g stroke="#10b981" stroke-width="2" fill="none" opacity="0.7">
    <path d="M50,240 Q100,220 150,240">
      <animate attributeName="d" values="M50,240 Q100,220 150,240;M50,240 Q100,210 150,240;M50,240 Q100,220 150,240" 
               dur="2s" repeatCount="indefinite"/>
    </path>
  </g>
</svg>