<?xml version="1.0" encoding="UTF-8"?>
<svg width="32px" height="32px" viewBox="0 0 32 32" version="1.1" xmlns="http://www.w3.org/2000/svg" xmlns:xlink="http://www.w3.org/1999/xlink">
    <title>Doom II</title>
    <defs>
        <linearGradient x1="0%" y1="0%" x2="100%" y2="100%" id="doomGradient">
            <stop stop-color="#8B0000" offset="0%"></stop>
            <stop stop-color="#FF4500" offset="100%"></stop>
        </linearGradient>
    </defs>
    <g stroke="none" stroke-width="1" fill="none" fill-rule="evenodd">
        <!-- Background -->
        <rect fill="#000000" x="0" y="0" width="32" height="32" rx="2"></rect>
        
        <!-- Doom Logo -->
        <path d="M4,4 L28,4 L28,28 L4,28 L4,4 Z" fill="url(#doomGradient)"></path>
        
        <!-- Doom Text -->
        <path d="M6,12 L10,12 L10,14 L8,14 L8,16 L10,16 L10,18 L6,18 L6,12 Z" fill="#FFFFFF"></path>
        <path d="M12,12 C13.1,12 14,12.9 14,14 L14,16 C14,17.1 13.1,18 12,18 C10.9,18 10,17.1 10,16 L10,14 C10,12.9 10.9,12 12,12 Z M12,14 L12,16 L12,14 Z" fill="#FFFFFF"></path>
        <path d="M15,12 L19,12 C20.1,12 21,12.9 21,14 L21,16 C21,17.1 20.1,18 19,18 L15,18 L15,12 Z M17,14 L17,16 L19,16 L19,14 L17,14 Z" fill="#FFFFFF"></path>
        <path d="M22,12 L26,12 L26,14 L24,14 L24,15 L26,15 L26,18 L22,18 L22,16 L24,16 L24,15 L22,15 L22,12 Z" fill="#FFFFFF"></path>
        
        <!-- Demon Silhouette -->
        <path d="M8,20 L24,20 L24,24 L8,24 Z" fill="#FFFFFF"></path>
        <path d="M10,19 L12,19 L12,20 L10,20 Z" fill="#FFFFFF"></path>
        <path d="M20,19 L22,19 L22,20 L20,20 Z" fill="#FFFFFF"></path>
        
        <!-- II for Doom II -->
        <path d="M14,26 L16,26 L16,28 L14,28 Z" fill="#FFFFFF"></path>
        <path d="M18,26 L20,26 L20,28 L18,28 Z" fill="#FFFFFF"></path>
    </g>
</svg>
