<?xml version="1.0" encoding="UTF-8" standalone="no"?>
<svg xmlns="http://www.w3.org/2000/svg" width="150" height="150" viewBox="0 0 150 150">
  <!-- Cacodemon Enemy -->
  <g transform="translate(75, 75)">
    <!-- Main body (sphere) -->
    <circle cx="0" cy="0" r="60" fill="#FF0000"/>
    <circle cx="0" cy="0" r="55" fill="#D70000"/>
    
    <!-- Eye -->
    <circle cx="0" cy="-15" r="20" fill="#00FF00"/>
    <circle cx="0" cy="-15" r="15" fill="#00CC00"/>
    <circle cx="0" cy="-15" r="10" fill="#009900"/>
    <circle cx="0" cy="-15" r="5" fill="#000000"/>
    
    <!-- Mouth -->
    <path d="M-30,20 C-20,40 20,40 30,20" fill="#8B0000"/>
    
    <!-- Teeth -->
    <path d="M-30,20 L-25,30 L-20,20" fill="#FFFFFF"/>
    <path d="M-15,20 L-10,30 L-5,20" fill="#FFFFFF"/>
    <path d="M5,20 L10,30 L15,20" fill="#FFFFFF"/>
    <path d="M20,20 L25,30 L30,20" fill="#FFFFFF"/>
    
    <!-- Horns/spikes -->
    <path d="M-40,-30 L-60,-40 L-50,-20" fill="#D70000"/>
    <path d="M40,-30 L60,-40 L50,-20" fill="#D70000"/>
    <path d="M-50,0 L-70,-5 L-70,5" fill="#D70000"/>
    <path d="M50,0 L70,-5 L70,5" fill="#D70000"/>
    <path d="M-40,30 L-60,40 L-50,20" fill="#D70000"/>
    <path d="M40,30 L60,40 L50,20" fill="#D70000"/>
    
    <!-- Veins -->
    <path d="M-20,-40 C-30,-30 -40,-20 -30,-10" stroke="#8B0000" stroke-width="2" fill="none"/>
    <path d="M20,-40 C30,-30 40,-20 30,-10" stroke="#8B0000" stroke-width="2" fill="none"/>
    <path d="M-40,0 C-30,10 -20,20 -10,10" stroke="#8B0000" stroke-width="2" fill="none"/>
    <path d="M40,0 C30,10 20,20 10,10" stroke="#8B0000" stroke-width="2" fill="none"/>
  </g>
</svg>
