<?xml version="1.0" encoding="UTF-8" standalone="no"?>
<svg xmlns="http://www.w3.org/2000/svg" width="100" height="200" viewBox="0 0 100 200">
  <!-- Imp Enemy -->
  <g transform="translate(50, 20)">
    <!-- Head -->
    <ellipse cx="0" cy="0" rx="20" ry="25" fill="#A52A2A"/>
    
    <!-- Eyes -->
    <circle cx="-8" cy="-5" r="5" fill="#FFFF00"/>
    <circle cx="8" cy="-5" r="5" fill="#FFFF00"/>
    <circle cx="-8" cy="-5" r="2" fill="#000"/>
    <circle cx="8" cy="-5" r="2" fill="#000"/>
    
    <!-- Mouth -->
    <path d="M-10,10 C-5,20 5,20 10,10" stroke="#800000" stroke-width="2" fill="none"/>
    
    <!-- Horns -->
    <path d="M-15,-15 L-25,-30 L-20,-35 L-10,-25 Z" fill="#8B4513"/>
    <path d="M15,-15 L25,-30 L20,-35 L10,-25 Z" fill="#8B4513"/>
    
    <!-- Body -->
    <ellipse cx="0" cy="50" rx="15" ry="30" fill="#A52A2A"/>
    
    <!-- Arms -->
    <path d="M-15,40 L-35,30 L-40,40 L-30,50 L-15,50" fill="#A52A2A"/>
    <path d="M15,40 L35,30 L40,40 L30,50 L15,50" fill="#A52A2A"/>
    
    <!-- Claws -->
    <path d="M-40,40 L-45,35 L-42,38 L-47,33 L-44,36 L-49,31" stroke="#800000" stroke-width="2" fill="none"/>
    <path d="M40,40 L45,35 L42,38 L47,33 L44,36 L49,31" stroke="#800000" stroke-width="2" fill="none"/>
    
    <!-- Legs -->
    <path d="M-10,80 L-20,120 L-15,130 L-5,120 L0,80" fill="#A52A2A"/>
    <path d="M10,80 L20,120 L15,130 L5,120 L0,80" fill="#A52A2A"/>
    
    <!-- Feet -->
    <path d="M-20,120 L-30,125 L-15,130" fill="#800000"/>
    <path d="M20,120 L30,125 L15,130" fill="#800000"/>
  </g>
</svg>
