<?xml version="1.0" encoding="UTF-8"?>
<svg width="16" height="16" viewBox="0 0 16 16" xmlns="http://www.w3.org/2000/svg">
  <defs>
    <filter id="shadow" x="-10%" y="-10%" width="120%" height="120%">
      <feDropShadow dx="0.5" dy="0.5" stdDeviation="0.5" flood-color="#000" flood-opacity="0.5"/>
    </filter>
  </defs>
  
  <!-- Feather shape -->
  <path d="M8,1 C6,1 4,3 2,7 C4,6 6,5 8,5 C10,5 12,6 14,7 C12,3 10,1 8,1 Z" 
        fill="#FFFFFF" 
        stroke="#FF6B00" 
        stroke-width="0.5"
        filter="url(#shadow)"/>
  
  <!-- Feather details -->
  <path d="M8,5 C8,8 8,11 8,14" 
        stroke="#FF6B00" 
        stroke-width="0.5" 
        fill="none"/>
  
  <path d="M4,6 C5.3,6.5 6.7,7 8,7 C9.3,7 10.7,6.5 12,6" 
        stroke="#FF6B00" 
        stroke-width="0.5" 
        stroke-dasharray="1,1"
        fill="none"/>
  
  <path d="M5,8 C6,8.3 7,8.7 8,9 C9,8.7 10,8.3 11,8" 
        stroke="#FF6B00" 
        stroke-width="0.5" 
        stroke-dasharray="1,1"
        fill="none"/>
</svg>
