<svg viewBox="0 0 800 400" xmlns="http://www.w3.org/2000/svg">
  <defs>
    <linearGradient id="bgGradient" x1="0%" y1="0%" x2="100%" y2="100%">
      <stop offset="0%" style="stop-color:#0D0D0D;stop-opacity:1" />
      <stop offset="100%" style="stop-color:#1A1A1A;stop-opacity:1" />
    </linearGradient>
    <linearGradient id="accentGradient" x1="0%" y1="0%" x2="100%" y2="0%">
      <stop offset="0%" style="stop-color:#00F0FF;stop-opacity:1" />
      <stop offset="100%" style="stop-color:#0080FF;stop-opacity:1" />
    </linearGradient>
  </defs>
  
  <!-- Background -->
  <rect width="800" height="400" fill="url(#bgGradient)"/>
  
  <!-- Grid pattern -->
  <defs>
    <pattern id="grid" width="40" height="40" patternUnits="userSpaceOnUse">
      <path d="M 40 0 L 0 0 0 40" fill="none" stroke="#333" stroke-width="1" opacity="0.3"/>
    </pattern>
  </defs>
  <rect width="800" height="400" fill="url(#grid)"/>
  
  <!-- Main content area -->
  <rect x="60" y="60" width="680" height="280" rx="12" fill="#1A1A1A" stroke="#333" stroke-width="2"/>
  
  <!-- AI Brain icon -->
  <g transform="translate(100, 100)">
    <circle cx="40" cy="40" r="35" fill="none" stroke="url(#accentGradient)" stroke-width="3"/>
    <circle cx="25" cy="30" r="4" fill="#00F0FF"/>
    <circle cx="55" cy="30" r="4" fill="#00F0FF"/>
    <circle cx="40" cy="50" r="6" fill="#00F0FF"/>
    <path d="M 20 45 Q 40 65 60 45" stroke="#00F0FF" stroke-width="2" fill="none"/>
    <!-- Neural network connections -->
    <line x1="25" y1="30" x2="40" y2="50" stroke="#00F0FF" stroke-width="1" opacity="0.6"/>
    <line x1="55" y1="30" x2="40" y2="50" stroke="#00F0FF" stroke-width="1" opacity="0.6"/>
  </g>
  
  <!-- Code brackets -->
  <g transform="translate(220, 120)">
    <path d="M 0 0 L -10 0 L -10 40 L 0 40" stroke="#00F0FF" stroke-width="3" fill="none"/>
    <path d="M 60 0 L 70 0 L 70 40 L 60 40" stroke="#00F0FF" stroke-width="3" fill="none"/>
    <text x="35" y="25" text-anchor="middle" fill="#FFFFFF" font-family="monospace" font-size="16">AI</text>
  </g>
  
  <!-- Title -->
  <text x="400" y="140" text-anchor="middle" fill="#FFFFFF" font-family="Arial, sans-serif" font-size="32" font-weight="bold">
    AI Coding Tools 2025
  </text>
  
  <!-- Subtitle -->
  <text x="400" y="170" text-anchor="middle" fill="#B0B0B0" font-family="Arial, sans-serif" font-size="18">
    A Reality Check for Small Businesses
  </text>
  
  <!-- Tech icons -->
  <g transform="translate(500, 100)">
    <!-- GitHub Copilot -->
    <circle cx="20" cy="20" r="15" fill="#24292e"/>
    <path d="M 15 15 L 25 15 M 15 20 L 25 20 M 15 25 L 25 25" stroke="#FFFFFF" stroke-width="2"/>
    
    <!-- Claude -->
    <circle cx="60" cy="20" r="15" fill="#8b5cf6"/>
    <text x="60" y="25" text-anchor="middle" fill="#FFFFFF" font-family="Arial, sans-serif" font-size="12" font-weight="bold">C</text>
    
    <!-- ChatGPT -->
    <circle cx="100" cy="20" r="15" fill="#10A37F"/>
    <path d="M 95 15 Q 100 10 105 15 Q 100 25 95 15" fill="#FFFFFF"/>
  </g>
  
  <!-- Bottom accent line -->
  <rect x="60" y="320" width="680" height="4" fill="url(#accentGradient)" rx="2"/>
  
  <!-- Year badge -->
  <rect x="650" y="80" width="80" height="30" rx="15" fill="url(#accentGradient)"/>
  <text x="690" y="100" text-anchor="middle" fill="#0D0D0D" font-family="Arial, sans-serif" font-size="14" font-weight="bold">2025</text>
</svg>