<svg width="800" height="400" viewBox="0 0 800 400" xmlns="http://www.w3.org/2000/svg">
  <defs>
    <linearGradient id="bgGradient" x1="0%" y1="0%" x2="100%" y2="100%">
      <stop offset="0%" style="stop-color:#0D0D0D;stop-opacity:1" />
      <stop offset="100%" style="stop-color:#1A1A1A;stop-opacity:1" />
    </linearGradient>
    <linearGradient id="accentGradient" x1="0%" y1="0%" x2="100%" y2="0%">
      <stop offset="0%" style="stop-color:#00F0FF;stop-opacity:1" />
      <stop offset="100%" style="stop-color:#0080FF;stop-opacity:1" />
    </linearGradient>
    <linearGradient id="astroGradient" x1="0%" y1="0%" x2="100%" y2="100%">
      <stop offset="0%" style="stop-color:#FF5D01;stop-opacity:1" />
      <stop offset="50%" style="stop-color:#00F0FF;stop-opacity:1" />
      <stop offset="100%" style="stop-color:#FF5D01;stop-opacity:1" />
    </linearGradient>
    <radialGradient id="starGradient" cx="50%" cy="50%" r="50%">
      <stop offset="0%" style="stop-color:#FFFFFF;stop-opacity:1" />
      <stop offset="100%" style="stop-color:#00F0FF;stop-opacity:0.8" />
    </radialGradient>
  </defs>
  
  <!-- Background -->
  <rect width="800" height="400" fill="url(#bgGradient)"/>
  
  <!-- Star field background -->
  <g opacity="0.3">
    <circle cx="150" cy="80" r="2" fill="#00F0FF"/>
    <circle cx="250" cy="120" r="1.5" fill="#FFFFFF"/>
    <circle cx="350" cy="60" r="2.5" fill="#00F0FF"/>
    <circle cx="450" cy="100" r="1" fill="#FFFFFF"/>
    <circle cx="550" cy="140" r="2" fill="#00F0FF"/>
    <circle cx="650" cy="70" r="1.5" fill="#FFFFFF"/>
    <circle cx="180" cy="300" r="1" fill="#00F0FF"/>
    <circle cx="280" cy="260" r="2" fill="#FFFFFF"/>
    <circle cx="380" cy="320" r="1.5" fill="#00F0FF"/>
    <circle cx="480" cy="280" r="1" fill="#FFFFFF"/>
    <circle cx="580" cy="340" r="2.5" fill="#00F0FF"/>
    <circle cx="680" cy="300" r="1.5" fill="#FFFFFF"/>
  </g>
  
  <!-- Main content area -->
  <rect x="60" y="60" width="680" height="280" rx="12" fill="rgba(26, 26, 26, 0.9)" stroke="#333" stroke-width="2"/>
  
  <!-- Astro logo stylized -->
  <g transform="translate(100, 120)">
    <!-- Rocket body -->
    <path d="M 40 10 L 35 70 L 45 70 Z" fill="url(#astroGradient)"/>
    <!-- Rocket fins -->
    <path d="M 35 60 L 25 70 L 35 70 Z" fill="#FF5D01"/>
    <path d="M 45 60 L 55 70 L 45 70 Z" fill="#FF5D01"/>
    <!-- Rocket nose -->
    <path d="M 40 10 L 35 25 L 45 25 Z" fill="#FFFFFF"/>
    <!-- Flame -->
    <ellipse cx="40" cy="75" rx="8" ry="12" fill="#FF5D01" opacity="0.8"/>
    <ellipse cx="40" cy="78" rx="5" ry="8" fill="#00F0FF" opacity="0.6"/>
    <!-- Stars around rocket -->
    <g fill="url(#starGradient)">
      <path d="M 20 30 L 22 35 L 27 35 L 23 38 L 25 43 L 20 40 L 15 43 L 17 38 L 13 35 L 18 35 Z"/>
      <path d="M 60 25 L 61 28 L 64 28 L 62 30 L 63 33 L 60 31 L 57 33 L 58 30 L 56 28 L 59 28 Z"/>
      <path d="M 25 55 L 26 57 L 28 57 L 27 58 L 28 60 L 25 59 L 22 60 L 23 58 L 22 57 L 24 57 Z"/>
    </g>
  </g>
  
  <!-- Framework components -->
  <g transform="translate(220, 140)">
    <!-- Component blocks -->
    <rect x="0" y="0" width="30" height="20" rx="4" fill="#333" stroke="#00F0FF" stroke-width="1"/>
    <text x="15" y="13" text-anchor="middle" fill="#00F0FF" font-family="monospace" font-size="8">JSX</text>
    
    <rect x="40" y="0" width="30" height="20" rx="4" fill="#333" stroke="#00F0FF" stroke-width="1"/>
    <text x="55" y="13" text-anchor="middle" fill="#00F0FF" font-family="monospace" font-size="8">Vue</text>
    
    <rect x="80" y="0" width="30" height="20" rx="4" fill="#333" stroke="#00F0FF" stroke-width="1"/>
    <text x="95" y="13" text-anchor="middle" fill="#00F0FF" font-family="monospace" font-size="8">Svelte</text>
    
    <!-- Arrows pointing to Astro -->
    <path d="M 15 25 L 15 35 L 12 32 M 15 35 L 18 32" stroke="#00F0FF" stroke-width="1" fill="none"/>
    <path d="M 55 25 L 55 35 L 52 32 M 55 35 L 58 32" stroke="#00F0FF" stroke-width="1" fill="none"/>
    <path d="M 95 25 L 95 35 L 92 32 M 95 35 L 98 32" stroke="#00F0FF" stroke-width="1" fill="none"/>
    
    <!-- Astro unified -->
    <rect x="30" y="40" width="50" height="25" rx="6" fill="url(#astroGradient)"/>
    <text x="55" y="55" text-anchor="middle" fill="#0D0D0D" font-family="Arial, sans-serif" font-size="12" font-weight="bold">ASTRO</text>
  </g>
  
  <!-- Title -->
  <text x="400" y="140" text-anchor="middle" fill="#FFFFFF" font-family="Arial, sans-serif" font-size="32" font-weight="bold">
    Astro Framework
  </text>
  
  <!-- Subtitle -->
  <text x="400" y="170" text-anchor="middle" fill="#B0B0B0" font-family="Arial, sans-serif" font-size="18">
    The All-in-One Web Framework
  </text>
  
  <!-- Performance indicators -->
  <g transform="translate(500, 120)">
    <!-- Speed gauge -->
    <circle cx="40" cy="40" r="30" fill="none" stroke="#333" stroke-width="3"/>
    <path d="M 20 50 A 30 30 0 0 1 60 50" stroke="url(#accentGradient)" stroke-width="4" fill="none"/>
    <circle cx="40" cy="40" r="3" fill="#00F0FF"/>
    <line x1="40" y1="40" x2="55" y2="30" stroke="#00F0FF" stroke-width="2"/>
    <text x="40" y="85" text-anchor="middle" fill="#B0B0B0" font-family="Arial, sans-serif" font-size="10">Fast</text>
  </g>
  
  <!-- Feature badges -->
  <g transform="translate(580, 200)">
    <rect x="0" y="0" width="60" height="20" rx="10" fill="#333" stroke="#00F0FF" stroke-width="1"/>
    <text x="30" y="13" text-anchor="middle" fill="#00F0FF" font-family="Arial, sans-serif" font-size="9">Zero JS</text>
    
    <rect x="0" y="25" width="60" height="20" rx="10" fill="#333" stroke="#00F0FF" stroke-width="1"/>
    <text x="30" y="38" text-anchor="middle" fill="#00F0FF" font-family="Arial, sans-serif" font-size="9">SSG/SSR</text>
    
    <rect x="0" y="50" width="60" height="20" rx="10" fill="#333" stroke="#00F0FF" stroke-width="1"/>
    <text x="30" y="63" text-anchor="middle" fill="#00F0FF" font-family="Arial, sans-serif" font-size="9">Islands</text>
  </g>
  
  <!-- Bottom accent line -->
  <rect x="60" y="320" width="680" height="4" fill="url(#astroGradient)" rx="2"/>
  
  <!-- Framework badge -->
  <rect x="650" y="80" width="80" height="30" rx="15" fill="url(#accentGradient)"/>
  <text x="690" y="100" text-anchor="middle" fill="#0D0D0D" font-family="Arial, sans-serif" font-size="12" font-weight="bold">MODERN</text>
</svg>